<?xml version="1.0" standalone="no"?>
<!DOCTYPE svg PUBLIC "-//W3C//DTD SVG 20010904//EN"
 "http://www.w3.org/TR/2001/REC-SVG-20010904/DTD/svg10.dtd">
<svg version="1.0" xmlns="http://www.w3.org/2000/svg"
 width="48.000000pt" height="48.000000pt" viewBox="0 0 48.000000 48.000000"
 preserveAspectRatio="xMidYMid meet">
<metadata>
Created by potrace 1.16, written by Peter Selinger 2001-2019
</metadata>
<g transform="translate(0.000000,48.000000) scale(0.100000,-0.100000)"
fill="#000000" stroke="none">
<path d="M223 446 c-4 -8 -17 -15 -28 -17 -17 -4 -21 -14 -25 -84 -3 -46 -8
-75 -13 -67 -15 23 -97 12 -97 -13 0 -15 58 -115 100 -171 16 -23 30 -50 30
-61 0 -18 7 -20 89 -20 l88 0 12 66 c7 36 11 118 9 181 -3 110 -4 115 -25 118
-13 2 -23 11 -25 25 -2 12 -12 23 -23 26 -11 2 -24 9 -28 17 -4 8 -19 14 -32
14 -13 0 -28 -6 -32 -14z m47 -81 c0 -43 4 -75 10 -75 6 0 10 27 10 60 0 47 3
60 15 60 12 0 15 -14 15 -65 0 -37 4 -65 10 -65 6 0 10 18 10 40 0 29 4 40 15
40 12 0 15 -17 15 -92 0 -50 -5 -118 -12 -149 l-12 -57 -50 2 c-28 2 -59 -1
-68 -6 -13 -6 -18 -5 -18 6 0 19 26 28 78 28 27 0 42 4 39 12 -4 13 -75 15
-101 3 -16 -8 -24 -4 -43 19 -23 29 -83 129 -83 139 0 14 29 2 50 -20 13 -14
27 -25 32 -25 4 0 8 43 8 95 0 78 3 95 15 95 12 0 15 -13 15 -60 0 -33 4 -60
10 -60 6 0 10 32 10 75 0 60 3 75 15 75 12 0 15 -15 15 -75z"/>
</g>
</svg>
