<?xml version="1.0" standalone="no"?>
<!DOCTYPE svg PUBLIC "-//W3C//DTD SVG 20010904//EN"
 "http://www.w3.org/TR/2001/REC-SVG-20010904/DTD/svg10.dtd">
<svg version="1.0" xmlns="http://www.w3.org/2000/svg"
 width="50.000000pt" height="50.000000pt" viewBox="0 0 50.000000 50.000000"
 preserveAspectRatio="xMidYMid meet">
<metadata>
Created by potrace 1.16, written by Peter Selinger 2001-2019
</metadata>
<g transform="translate(0.000000,50.000000) scale(0.100000,-0.100000)"
fill="#000000" stroke="none">
<path d="M110 432 c0 -10 -12 -29 -26 -43 -71 -66 -85 -175 -34 -266 16 -29
30 -60 30 -68 0 -19 75 -21 84 -2 5 9 7 9 12 0 7 -17 61 -17 68 0 5 9 7 9 12
0 7 -17 61 -17 68 0 5 9 7 9 12 0 3 -7 23 -13 45 -13 30 0 39 4 39 18 0 9 14
40 30 67 51 87 37 198 -34 264 -14 14 -26 33 -26 43 0 10 -4 18 -10 18 -13 0
-13 -67 1 -75 6 -4 24 -25 40 -47 38 -53 41 -128 6 -179 l-23 -34 -154 0 -154
0 -23 34 c-41 60 -26 157 33 212 24 23 35 89 14 89 -5 0 -10 -8 -10 -18z"/>
</g>
</svg>
