<?xml version="1.0" standalone="no"?>
<!DOCTYPE svg PUBLIC "-//W3C//DTD SVG 20010904//EN"
 "http://www.w3.org/TR/2001/REC-SVG-20010904/DTD/svg10.dtd">
<svg version="1.0" xmlns="http://www.w3.org/2000/svg"
 width="50.000000pt" height="50.000000pt" viewBox="0 0 50.000000 50.000000"
 preserveAspectRatio="xMidYMid meet">
<metadata>
Created by potrace 1.16, written by Peter Selinger 2001-2019
</metadata>
<g transform="translate(0.000000,50.000000) scale(0.100000,-0.100000)"
fill="#000000" stroke="none">
<path d="M392 485 c-13 -7 -39 -27 -59 -44 -19 -17 -39 -31 -44 -31 -5 0 -12
-6 -15 -14 -3 -7 -27 -28 -54 -45 -43 -28 -52 -30 -69 -19 -18 11 -25 8 -61
-27 -22 -21 -40 -46 -40 -55 0 -20 180 -200 201 -200 8 0 33 18 54 40 35 36
38 43 27 61 -11 17 -9 26 19 69 17 27 38 51 45 54 8 3 14 10 14 15 0 5 14 25
30 43 35 37 60 83 60 108 0 23 -42 60 -66 59 -10 -1 -29 -7 -42 -14z m-10
-102 c33 -32 35 -43 8 -43 -14 0 -19 -6 -17 -22 1 -14 -4 -23 -13 -23 -8 0
-16 -9 -18 -20 -2 -12 -14 -34 -27 -50 l-24 -30 -48 48 -48 48 30 24 c16 13
38 25 50 27 13 2 19 9 17 22 -3 15 1 17 22 12 22 -5 26 -3 26 14 0 27 8 25 42
-7z m-99 -275 l-27 -28 -88 87 -88 87 27 28 27 28 88 -87 88 -87 -27 -28z"/>
<path d="M37 162 c-32 -34 -33 -43 -7 -67 11 -10 20 -24 20 -32 0 -7 6 -13 14
-13 8 0 18 -5 21 -10 3 -6 -3 -10 -15 -10 -13 0 -28 12 -38 30 -21 38 -32 38
-32 2 0 -71 102 -85 163 -23 l31 31 -59 60 c-33 33 -62 60 -65 60 -4 0 -18
-13 -33 -28z"/>
</g>
</svg>
