<?xml version="1.0" standalone="no"?>
<!DOCTYPE svg PUBLIC "-//W3C//DTD SVG 20010904//EN"
 "http://www.w3.org/TR/2001/REC-SVG-20010904/DTD/svg10.dtd">
<svg version="1.0" xmlns="http://www.w3.org/2000/svg"
 width="50.000000pt" height="50.000000pt" viewBox="0 0 50.000000 50.000000"
 preserveAspectRatio="xMidYMid meet">
<metadata>
Created by potrace 1.16, written by Peter Selinger 2001-2019
</metadata>
<g transform="translate(0.000000,50.000000) scale(0.100000,-0.100000)"
fill="#000000" stroke="none">
<path d="M112 438 c-7 -7 -12 -17 -12 -23 0 -9 -25 -23 -73 -39 -14 -4 -18
-15 -16 -38 1 -18 -1 -40 -5 -49 -8 -19 -1 -173 9 -188 18 -30 25 -4 21 82 -2
53 0 81 4 67 4 -14 8 -71 9 -127 l1 -103 45 0 c33 0 45 4 45 15 0 12 19 15
110 15 91 0 110 -3 110 -15 0 -11 12 -15 45 -15 l45 0 1 103 c1 56 5 113 9
127 4 14 6 -17 3 -72 -2 -61 0 -98 6 -98 17 0 22 18 27 108 5 82 3 91 -23 142
-26 50 -32 55 -72 62 -24 4 -49 12 -57 18 -7 7 -43 13 -79 14 -37 2 -71 8 -78
15 -15 15 -60 14 -75 -1z m240 -120 c8 -7 21 -29 28 -48 7 -19 20 -43 29 -53
13 -16 13 -19 1 -27 -8 -6 -21 -10 -27 -10 -7 0 -13 -7 -13 -15 0 -10 10 -15
30 -15 30 0 30 -1 30 -55 0 -52 -1 -55 -25 -55 -18 0 -25 5 -25 19 0 19 -8 20
-130 20 -122 0 -130 -1 -130 -20 0 -14 -7 -19 -25 -19 -24 0 -25 3 -25 55 0
54 0 55 30 55 20 0 30 5 30 15 0 8 -6 15 -12 15 -7 0 -20 4 -28 10 -12 8 -12
11 1 27 9 10 22 34 29 53 20 54 34 60 130 60 54 0 92 -5 102 -12z"/>
</g>
</svg>
