<?xml version="1.0" standalone="no"?>
<!DOCTYPE svg PUBLIC "-//W3C//DTD SVG 20010904//EN"
 "http://www.w3.org/TR/2001/REC-SVG-20010904/DTD/svg10.dtd">
<svg version="1.0" xmlns="http://www.w3.org/2000/svg"
 width="50.000000pt" height="50.000000pt" viewBox="0 0 50.000000 50.000000"
 preserveAspectRatio="xMidYMid meet">
<metadata>
Created by potrace 1.16, written by Peter Selinger 2001-2019
</metadata>
<g transform="translate(0.000000,50.000000) scale(0.100000,-0.100000)"
fill="#000000" stroke="none">
<path d="M198 405 c-10 -22 -18 -25 -58 -25 -45 0 -48 -2 -54 -31 -3 -17 -6
-77 -6 -134 0 -93 2 -103 23 -123 27 -25 69 -29 87 -7 18 22 180 22 180 0 0
-8 5 -15 10 -15 6 0 10 6 10 14 0 8 7 16 15 20 12 4 15 26 15 109 0 58 -3 119
-6 136 -6 28 -10 31 -46 31 -31 0 -45 6 -60 25 -15 19 -29 25 -59 25 -32 0
-41 -4 -51 -25z"/>
</g>
</svg>
