<?xml version="1.0" standalone="no"?>
<!DOCTYPE svg PUBLIC "-//W3C//DTD SVG 20010904//EN"
 "http://www.w3.org/TR/2001/REC-SVG-20010904/DTD/svg10.dtd">
<svg version="1.0" xmlns="http://www.w3.org/2000/svg"
 width="50.000000pt" height="50.000000pt" viewBox="0 0 50.000000 50.000000"
 preserveAspectRatio="xMidYMid meet">
<metadata>
Created by potrace 1.16, written by Peter Selinger 2001-2019
</metadata>
<g transform="translate(0.000000,50.000000) scale(0.100000,-0.100000)"
fill="#000000" stroke="none">
<path d="M264 481 c-39 -24 -58 -69 -52 -126 5 -42 3 -47 -31 -76 -20 -18 -69
-62 -109 -100 -63 -60 -72 -72 -72 -103 0 -47 29 -76 74 -76 39 0 47 6 154
126 l82 91 54 -5 c91 -7 136 40 136 143 0 66 -12 70 -60 20 -25 -26 -42 -35
-67 -35 -31 0 -33 2 -33 33 0 25 9 42 35 67 50 49 46 60 -22 60 -39 0 -68 -6
-89 -19z m68 -34 c-27 -28 -30 -97 -6 -121 24 -24 93 -21 121 6 l23 21 0 -25
c0 -31 -34 -76 -67 -89 -56 -21 -163 69 -163 137 0 45 45 94 86 94 l27 0 -21
-23z m-63 -181 l23 -24 -96 -105 c-53 -58 -103 -107 -110 -110 -21 -8 -56 21
-56 46 -1 15 32 52 102 119 57 54 106 97 109 98 3 0 16 -11 28 -24z"/>
</g>
</svg>
