<?xml version="1.0" standalone="no"?>
<!DOCTYPE svg PUBLIC "-//W3C//DTD SVG 20010904//EN"
 "http://www.w3.org/TR/2001/REC-SVG-20010904/DTD/svg10.dtd">
<svg version="1.0" xmlns="http://www.w3.org/2000/svg"
 width="50.000000pt" height="50.000000pt" viewBox="0 0 50.000000 50.000000"
 preserveAspectRatio="xMidYMid meet">
<metadata>
Created by potrace 1.16, written by Peter Selinger 2001-2019
</metadata>
<g transform="translate(0.000000,50.000000) scale(0.100000,-0.100000)"
fill="#000000" stroke="none">
<path d="M145 451 c-49 -23 -99 -74 -119 -123 -23 -54 -21 -155 4 -203 11 -22
20 -50 20 -62 l0 -23 200 0 200 0 0 23 c0 12 9 40 20 62 26 52 27 154 1 210
-23 49 -74 99 -123 119 -52 22 -153 20 -203 -3z m206 -34 c66 -35 102 -93 107
-172 3 -52 0 -73 -17 -105 -11 -22 -21 -47 -21 -54 0 -15 -70 -26 -170 -26
-100 0 -170 11 -170 26 0 7 -10 32 -21 54 -31 60 -24 154 16 212 41 57 103 88
175 88 40 0 70 -7 101 -23z"/>
<path d="M162 370 c-48 -30 -72 -75 -72 -140 0 -100 60 -160 160 -160 100 0
160 60 160 160 0 65 -24 110 -72 140 -45 27 -131 27 -176 0z m98 -54 c0 -40
25 -55 60 -36 32 17 36 4 6 -15 -33 -22 -33 -48 0 -70 30 -19 26 -32 -6 -15
-35 19 -60 4 -60 -36 0 -19 -4 -34 -10 -34 -5 0 -10 15 -10 34 0 40 -25 55
-60 36 -32 -17 -36 -4 -6 15 33 22 33 48 0 70 -30 19 -26 32 6 15 35 -19 60
-4 60 36 0 19 5 34 10 34 6 0 10 -15 10 -34z"/>
</g>
</svg>
