<?xml version="1.0" standalone="no"?>
<!DOCTYPE svg PUBLIC "-//W3C//DTD SVG 20010904//EN"
 "http://www.w3.org/TR/2001/REC-SVG-20010904/DTD/svg10.dtd">
<svg version="1.0" xmlns="http://www.w3.org/2000/svg"
 width="32.000000pt" height="32.000000pt" viewBox="0 0 32.000000 32.000000"
 preserveAspectRatio="xMidYMid meet">
<metadata>
Created by potrace 1.16, written by Peter Selinger 2001-2019
</metadata>
<g transform="translate(0.000000,32.000000) scale(0.100000,-0.100000)"
fill="#000000" stroke="none">
<path d="M0 180 l0 -100 65 0 c37 0 65 -4 65 -10 0 -5 -11 -10 -25 -10 -14 0
-25 -4 -25 -10 0 -6 30 -10 70 -10 40 0 70 4 70 10 0 6 -13 10 -30 10 -16 0
-30 5 -30 10 0 6 30 10 70 10 l70 0 0 100 0 100 -150 0 -150 0 0 -100z m275 0
l0 -75 -125 0 -125 0 -3 64 c-2 35 -1 70 2 78 5 11 31 13 128 11 l123 -3 0
-75z"/>
</g>
</svg>
