<?xml version="1.0" standalone="no"?>
<!DOCTYPE svg PUBLIC "-//W3C//DTD SVG 20010904//EN"
 "http://www.w3.org/TR/2001/REC-SVG-20010904/DTD/svg10.dtd">
<svg version="1.0" xmlns="http://www.w3.org/2000/svg"
 width="48.000000pt" height="48.000000pt" viewBox="0 0 48.000000 48.000000"
 preserveAspectRatio="xMidYMid meet">
<metadata>
Created by potrace 1.16, written by Peter Selinger 2001-2019
</metadata>
<g transform="translate(0.000000,48.000000) scale(0.100000,-0.100000)"
fill="#000000" stroke="none">
<path d="M80 415 l0 -25 160 0 160 0 0 25 0 25 -160 0 -160 0 0 -25z"/>
<path d="M100 285 l0 -85 50 0 c54 0 68 17 28 35 -26 12 -37 67 -17 91 16 20
142 20 158 0 20 -24 9 -79 -16 -91 -41 -18 -27 -35 27 -35 l50 0 0 85 0 85
-140 0 -140 0 0 -85z"/>
<path d="M86 158 c-13 -49 -15 -48 159 -48 98 0 165 4 165 10 0 5 -5 21 -12
35 -10 23 -17 25 -68 25 -49 0 -58 -3 -63 -20 -3 -12 -14 -20 -27 -20 -13 0
-24 8 -27 20 -5 17 -14 20 -63 20 -51 0 -58 -2 -64 -22z"/>
<path d="M80 65 l0 -25 165 0 165 0 0 25 0 25 -165 0 -165 0 0 -25z"/>
</g>
</svg>
