<?xml version="1.0" standalone="no"?>
<!DOCTYPE svg PUBLIC "-//W3C//DTD SVG 20010904//EN"
 "http://www.w3.org/TR/2001/REC-SVG-20010904/DTD/svg10.dtd">
<svg version="1.0" xmlns="http://www.w3.org/2000/svg"
 width="32.000000pt" height="32.000000pt" viewBox="0 0 32.000000 32.000000"
 preserveAspectRatio="xMidYMid meet">
<metadata>
Created by potrace 1.16, written by Peter Selinger 2001-2019
</metadata>
<g transform="translate(0.000000,32.000000) scale(0.100000,-0.100000)"
fill="#000000" stroke="none">
<path d="M68 254 c-15 -8 -35 -28 -43 -44 -15 -29 -20 -105 -9 -134 9 -22 56
-20 87 4 32 26 82 26 114 0 31 -24 78 -26 87 -4 11 29 6 105 -9 134 -9 16 -29
36 -45 45 -38 19 -146 19 -182 -1z m183 -43 c24 -24 29 -38 29 -75 0 -51 -15
-60 -45 -26 -26 29 -124 29 -150 0 -30 -34 -45 -25 -45 26 0 37 5 51 29 75 26
26 36 29 91 29 55 0 65 -3 91 -29z"/>
</g>
</svg>
