<?xml version="1.0" standalone="no"?>
<!DOCTYPE svg PUBLIC "-//W3C//DTD SVG 20010904//EN"
 "http://www.w3.org/TR/2001/REC-SVG-20010904/DTD/svg10.dtd">
<svg version="1.0" xmlns="http://www.w3.org/2000/svg"
 width="30.000000pt" height="30.000000pt" viewBox="0 0 30.000000 30.000000"
 preserveAspectRatio="xMidYMid meet">
<metadata>
Created by potrace 1.16, written by Peter Selinger 2001-2019
</metadata>
<g transform="translate(0.000000,30.000000) scale(0.100000,-0.100000)"
fill="#000000" stroke="none">
<path d="M110 180 c0 -50 -4 -90 -9 -90 -5 0 -7 9 -4 20 6 24 -5 25 -52 6 -19
-8 -35 -22 -35 -30 0 -22 38 -39 71 -32 16 3 29 2 29 -3 0 -5 11 -11 25 -13
l25 -5 2 96 c1 53 3 75 5 49 4 -43 7 -48 29 -48 28 0 43 29 36 66 -6 31 -21
43 -77 59 l-45 14 0 -89z"/>
</g>
</svg>
