<?xml version="1.0" standalone="no"?>
<!DOCTYPE svg PUBLIC "-//W3C//DTD SVG 20010904//EN"
 "http://www.w3.org/TR/2001/REC-SVG-20010904/DTD/svg10.dtd">
<svg version="1.0" xmlns="http://www.w3.org/2000/svg"
 width="50.000000pt" height="50.000000pt" viewBox="0 0 50.000000 50.000000"
 preserveAspectRatio="xMidYMid meet">
<metadata>
Created by potrace 1.16, written by Peter Selinger 2001-2019
</metadata>
<g transform="translate(0.000000,50.000000) scale(0.100000,-0.100000)"
fill="#000000" stroke="none">
<path d="M102 472 c-9 -7 -12 -59 -10 -228 l3 -219 165 0 165 0 0 225 0 225
-155 2 c-85 2 -161 -1 -168 -5z m188 -222 l0 -200 -90 0 -90 0 0 200 0 200 90
0 90 0 0 -200z m120 0 l0 -200 -50 0 -50 0 0 200 0 200 50 0 50 0 0 -200z"/>
</g>
</svg>
