<?xml version="1.0" standalone="no"?>
<!DOCTYPE svg PUBLIC "-//W3C//DTD SVG 20010904//EN"
 "http://www.w3.org/TR/2001/REC-SVG-20010904/DTD/svg10.dtd">
<svg version="1.0" xmlns="http://www.w3.org/2000/svg"
 width="50.000000pt" height="50.000000pt" viewBox="0 0 50.000000 50.000000"
 preserveAspectRatio="xMidYMid meet">
<metadata>
Created by potrace 1.16, written by Peter Selinger 2001-2019
</metadata>
<g transform="translate(0.000000,50.000000) scale(0.100000,-0.100000)"
fill="#000000" stroke="none">
<path d="M176 481 c-60 -40 -66 -61 -66 -231 0 -170 6 -191 66 -231 39 -26
129 -26 168 0 60 40 66 61 66 231 0 135 -3 159 -19 184 -31 46 -69 66 -131 66
-37 0 -64 -6 -84 -19z m167 -45 c31 -31 47 -73 47 -127 0 -9 -31 -36 -68 -61
l-68 -46 -59 44 c-32 24 -60 46 -62 48 -3 3 -2 28 2 56 5 40 15 59 41 86 30
29 41 34 84 34 43 0 54 -5 83 -34z m42 -283 c-5 -43 -13 -61 -41 -88 -30 -30
-41 -35 -83 -35 -41 0 -54 5 -82 31 l-32 30 119 80 c134 89 133 89 119 -18z"/>
<path d="M184 423 c-43 -47 -43 -70 1 -111 28 -25 45 -32 75 -32 30 0 47 7 75
32 44 41 44 64 1 111 -29 31 -40 37 -76 37 -36 0 -47 -6 -76 -37z"/>
</g>
</svg>
