<?xml version="1.0" standalone="no"?>
<!DOCTYPE svg PUBLIC "-//W3C//DTD SVG 20010904//EN"
 "http://www.w3.org/TR/2001/REC-SVG-20010904/DTD/svg10.dtd">
<svg version="1.0" xmlns="http://www.w3.org/2000/svg"
 width="32.000000pt" height="32.000000pt" viewBox="0 0 32.000000 32.000000"
 preserveAspectRatio="xMidYMid meet">
<metadata>
Created by potrace 1.16, written by Peter Selinger 2001-2019
</metadata>
<g transform="translate(0.000000,32.000000) scale(0.100000,-0.100000)"
fill="#000000" stroke="none">
<path d="M20 160 l0 -110 138 0 139 0 0 100 0 100 -59 0 c-32 0 -58 4 -58 10
0 6 -33 10 -80 10 l-80 0 0 -110z m138 18 l3 -68 -61 0 -60 0 0 63 c0 35 3 67
7 71 4 4 30 6 58 4 l50 -3 3 -67z"/>
</g>
</svg>
