<?xml version="1.0" standalone="no"?>
<!DOCTYPE svg PUBLIC "-//W3C//DTD SVG 20010904//EN"
 "http://www.w3.org/TR/2001/REC-SVG-20010904/DTD/svg10.dtd">
<svg version="1.0" xmlns="http://www.w3.org/2000/svg"
 width="32.000000pt" height="32.000000pt" viewBox="0 0 32.000000 32.000000"
 preserveAspectRatio="xMidYMid meet">
<metadata>
Created by potrace 1.16, written by Peter Selinger 2001-2019
</metadata>
<g transform="translate(0.000000,32.000000) scale(0.100000,-0.100000)"
fill="#000000" stroke="none">
<path d="M150 281 c0 -5 -27 -20 -60 -33 -63 -24 -74 -36 -40 -45 28 -7 26
-46 -2 -58 -26 -12 -37 -67 -17 -91 14 -17 70 -19 87 -2 20 20 15 76 -8 90
-13 8 -20 24 -20 43 0 25 6 33 30 42 17 6 30 8 30 3 0 -4 -7 -11 -16 -14 -10
-4 -14 -16 -12 -38 3 -29 7 -33 36 -36 35 -4 45 16 12 25 -11 3 -20 9 -20 13
0 4 9 10 20 13 20 5 28 27 10 27 -5 0 -10 4 -10 9 0 5 14 4 30 -2 41 -16 41
-53 -1 -88 l-31 -25 27 -32 c33 -40 44 -40 80 -2 l28 29 -27 35 c-31 42 -32
52 -6 59 34 9 23 21 -40 45 -33 13 -60 28 -60 33 0 5 -4 9 -10 9 -5 0 -10 -4
-10 -9z"/>
</g>
</svg>
