<?xml version="1.0" standalone="no"?>
<!DOCTYPE svg PUBLIC "-//W3C//DTD SVG 20010904//EN"
 "http://www.w3.org/TR/2001/REC-SVG-20010904/DTD/svg10.dtd">
<svg version="1.0" xmlns="http://www.w3.org/2000/svg"
 width="32.000000pt" height="32.000000pt" viewBox="0 0 32.000000 32.000000"
 preserveAspectRatio="xMidYMid meet">
<metadata>
Created by potrace 1.16, written by Peter Selinger 2001-2019
</metadata>
<g transform="translate(0.000000,32.000000) scale(0.100000,-0.100000)"
fill="#000000" stroke="none">
<path d="M230 281 c0 -4 -10 -6 -23 -4 -14 3 -29 -2 -36 -11 -8 -9 -21 -16
-30 -16 -9 0 -38 -22 -64 -48 -58 -59 -64 -102 -19 -145 45 -44 87 -38 145 21
26 26 47 55 47 64 0 8 7 21 16 29 9 7 14 22 11 36 -2 13 0 23 4 23 5 0 9 14 9
30 0 27 -3 30 -30 30 -16 0 -30 -4 -30 -9z"/>
</g>
</svg>
