<?xml version="1.0" standalone="no"?>
<!DOCTYPE svg PUBLIC "-//W3C//DTD SVG 20010904//EN"
 "http://www.w3.org/TR/2001/REC-SVG-20010904/DTD/svg10.dtd">
<svg version="1.0" xmlns="http://www.w3.org/2000/svg"
 width="50.000000pt" height="50.000000pt" viewBox="0 0 50.000000 50.000000"
 preserveAspectRatio="xMidYMid meet">
<metadata>
Created by potrace 1.16, written by Peter Selinger 2001-2019
</metadata>
<g transform="translate(0.000000,50.000000) scale(0.100000,-0.100000)"
fill="#000000" stroke="none">
<path d="M162 338 c-8 -8 -12 -45 -12 -100 0 -81 2 -88 20 -88 16 0 19 -8 22
-62 3 -63 3 -63 33 -63 l30 0 3 163 2 162 -43 0 c-24 0 -48 -5 -55 -12z"/>
<path d="M270 185 l0 -165 30 0 c30 0 30 1 30 55 0 50 2 55 23 55 24 0 47 37
47 75 0 38 -31 115 -53 130 -12 8 -34 15 -49 15 l-28 0 0 -165z"/>
</g>
</svg>
