<?xml version="1.0" standalone="no"?>
<!DOCTYPE svg PUBLIC "-//W3C//DTD SVG 20010904//EN"
 "http://www.w3.org/TR/2001/REC-SVG-20010904/DTD/svg10.dtd">
<svg version="1.0" xmlns="http://www.w3.org/2000/svg"
 width="48.000000pt" height="48.000000pt" viewBox="0 0 48.000000 48.000000"
 preserveAspectRatio="xMidYMid meet">
<metadata>
Created by potrace 1.16, written by Peter Selinger 2001-2019
</metadata>
<g transform="translate(0.000000,48.000000) scale(0.100000,-0.100000)"
fill="#000000" stroke="none">
<path d="M16 412 c-3 -5 3 -17 14 -27 18 -16 20 -31 20 -146 0 -118 2 -130 20
-141 11 -7 20 -18 20 -25 0 -7 7 -13 15 -13 8 0 15 7 15 15 0 13 20 15 120 15
100 0 120 -2 120 -15 0 -8 7 -15 15 -15 8 0 15 6 15 13 0 7 9 18 20 25 18 11
20 23 20 141 0 102 3 131 15 141 25 21 18 42 -12 38 -20 -2 -29 -9 -31 -25 -3
-23 -5 -23 -162 -23 -157 0 -159 0 -162 23 -2 15 -11 23 -30 25 -14 2 -29 -1
-32 -6z"/>
</g>
</svg>
