<?xml version="1.0" standalone="no"?>
<!DOCTYPE svg PUBLIC "-//W3C//DTD SVG 20010904//EN"
 "http://www.w3.org/TR/2001/REC-SVG-20010904/DTD/svg10.dtd">
<svg version="1.0" xmlns="http://www.w3.org/2000/svg"
 width="32.000000pt" height="32.000000pt" viewBox="0 0 32.000000 32.000000"
 preserveAspectRatio="xMidYMid meet">
<metadata>
Created by potrace 1.16, written by Peter Selinger 2001-2019
</metadata>
<g transform="translate(0.000000,32.000000) scale(0.100000,-0.100000)"
fill="#000000" stroke="none">
<path d="M180 235 c0 -56 -18 -59 -26 -5 -6 36 -10 40 -35 40 -22 0 -29 -5
-29 -19 0 -35 -12 -51 -36 -51 -15 0 -24 -6 -24 -15 0 -9 9 -15 23 -15 27 0
50 -48 47 -98 -1 -30 1 -32 29 -32 26 0 31 4 31 25 0 20 5 25 25 25 20 0 25
-5 25 -25 0 -21 5 -25 31 -25 28 0 30 2 28 33 -2 17 3 42 9 54 7 12 12 40 12
63 0 51 -34 90 -80 90 -29 0 -30 -2 -30 -45z"/>
</g>
</svg>
