<?xml version="1.0" standalone="no"?>
<!DOCTYPE svg PUBLIC "-//W3C//DTD SVG 20010904//EN"
 "http://www.w3.org/TR/2001/REC-SVG-20010904/DTD/svg10.dtd">
<svg version="1.0" xmlns="http://www.w3.org/2000/svg"
 width="50.000000pt" height="50.000000pt" viewBox="0 0 50.000000 50.000000"
 preserveAspectRatio="xMidYMid meet">
<metadata>
Created by potrace 1.16, written by Peter Selinger 2001-2019
</metadata>
<g transform="translate(0.000000,50.000000) scale(0.100000,-0.100000)"
fill="#000000" stroke="none">
<path d="M209 464 c-7 -9 -18 -41 -24 -72 l-12 -57 -7 43 -8 42 -59 0 c-46 0
-59 -3 -59 -15 0 -10 10 -15 29 -15 25 0 28 -3 23 -25 -3 -16 -11 -25 -23 -25
-15 0 -19 -7 -19 -40 0 -29 -4 -40 -15 -40 -10 0 -15 -11 -15 -35 0 -23 5 -35
14 -35 8 0 15 -15 18 -37 3 -21 13 -55 21 -76 l16 -37 161 0 161 0 16 38 c8
20 18 54 21 75 3 22 10 37 18 37 9 0 14 12 14 35 0 24 -5 35 -14 35 -11 0 -16
21 -22 80 l-7 80 -53 0 c-49 0 -55 2 -69 30 -13 25 -21 30 -54 30 -23 0 -44
-6 -52 -16z m-79 -319 c0 -43 1 -45 30 -45 29 0 30 2 30 45 0 33 4 45 15 45
11 0 15 -12 15 -45 0 -43 1 -45 30 -45 29 0 30 2 30 45 0 33 4 45 15 45 11 0
15 -12 15 -45 0 -43 1 -45 30 -45 29 0 30 2 30 45 0 43 1 45 30 45 l29 0 -22
-63 -22 -62 -135 0 -135 0 -22 63 -22 62 29 0 c29 0 30 -2 30 -45z"/>
</g>
</svg>
