<?xml version="1.0" standalone="no"?>
<!DOCTYPE svg PUBLIC "-//W3C//DTD SVG 20010904//EN"
 "http://www.w3.org/TR/2001/REC-SVG-20010904/DTD/svg10.dtd">
<svg version="1.0" xmlns="http://www.w3.org/2000/svg"
 width="50.000000pt" height="50.000000pt" viewBox="0 0 50.000000 50.000000"
 preserveAspectRatio="xMidYMid meet">
<metadata>
Created by potrace 1.16, written by Peter Selinger 2001-2019
</metadata>
<g transform="translate(0.000000,50.000000) scale(0.100000,-0.100000)"
fill="#000000" stroke="none">
<path d="M164 332 c-6 -4 -21 -25 -32 -48 -11 -22 -39 -52 -62 -68 -34 -22
-41 -32 -38 -54 4 -36 46 -42 89 -12 16 12 32 20 35 17 3 -2 -16 -17 -41 -32
-43 -25 -46 -29 -43 -63 l3 -37 175 0 175 0 3 37 c3 34 0 38 -43 63 -25 15
-44 30 -41 32 3 3 19 -5 35 -17 43 -30 85 -24 89 12 3 22 -4 32 -38 54 -23 16
-51 46 -62 68 -11 23 -26 44 -32 48 -6 4 -45 8 -86 8 -41 0 -80 -4 -86 -8z
m134 -18 c14 -4 32 -24 47 -53 15 -30 36 -54 59 -66 31 -17 47 -35 30 -35 -20
0 -86 50 -95 73 -12 28 -39 37 -39 13 0 -8 5 -36 11 -63 10 -41 18 -53 50 -71
76 -44 45 -65 -86 -60 -63 2 -80 6 -80 18 0 11 14 16 52 18 29 2 56 9 63 17
11 13 4 15 -43 15 -76 0 -107 -13 -107 -45 0 -25 -13 -31 -44 -19 -27 10 -18
32 23 56 32 18 40 30 50 71 6 27 11 55 11 63 0 24 -27 15 -39 -13 -9 -23 -75
-73 -95 -73 -17 0 -1 18 30 35 23 12 44 36 60 66 13 26 32 50 41 52 28 7 75 7
101 1z"/>
</g>
</svg>
