<?xml version="1.0" standalone="no"?>
<!DOCTYPE svg PUBLIC "-//W3C//DTD SVG 20010904//EN"
 "http://www.w3.org/TR/2001/REC-SVG-20010904/DTD/svg10.dtd">
<svg version="1.0" xmlns="http://www.w3.org/2000/svg"
 width="50.000000pt" height="50.000000pt" viewBox="0 0 50.000000 50.000000"
 preserveAspectRatio="xMidYMid meet">
<metadata>
Created by potrace 1.16, written by Peter Selinger 2001-2019
</metadata>
<g transform="translate(0.000000,50.000000) scale(0.100000,-0.100000)"
fill="#000000" stroke="none">
<path d="M252 488 c-16 -16 -16 -80 0 -96 7 -7 25 -12 41 -12 29 0 29 0 10
-17 -11 -10 -38 -50 -61 -89 -22 -39 -48 -76 -56 -84 -9 -7 -17 -29 -18 -49
l-1 -36 -4 35 c-6 48 -19 60 -62 60 -46 0 -61 -14 -61 -60 0 -45 14 -60 60
-62 19 -1 6 -4 -30 -7 -64 -6 -65 -6 -65 -36 l0 -30 90 -3 90 -3 35 36 c32 33
38 35 97 35 l63 0 0 -35 0 -35 60 0 c33 0 60 4 60 10 0 6 -22 10 -50 10 l-50
0 0 80 0 80 50 0 c45 0 50 2 50 23 -1 12 -20 58 -43 102 -37 71 -46 80 -72 83
-29 3 -30 5 -27 43 2 22 -1 46 -8 54 -15 18 -81 20 -98 3z m158 -155 c7 -16
23 -52 36 -80 l24 -53 -54 0 -54 0 -19 48 -20 47 -29 -47 c-40 -67 -64 -64
-27 3 58 107 116 139 143 82z m-30 -198 l0 -45 -78 0 c-76 0 -79 -1 -112 -35
-33 -34 -38 -36 -95 -33 -76 4 -74 22 2 26 66 4 93 22 93 64 0 50 30 68 115
68 l75 0 0 -45z"/>
</g>
</svg>
