<?xml version="1.0" standalone="no"?>
<!DOCTYPE svg PUBLIC "-//W3C//DTD SVG 20010904//EN"
 "http://www.w3.org/TR/2001/REC-SVG-20010904/DTD/svg10.dtd">
<svg version="1.0" xmlns="http://www.w3.org/2000/svg"
 width="50.000000pt" height="50.000000pt" viewBox="0 0 50.000000 50.000000"
 preserveAspectRatio="xMidYMid meet">
<metadata>
Created by potrace 1.16, written by Peter Selinger 2001-2019
</metadata>
<g transform="translate(0.000000,50.000000) scale(0.100000,-0.100000)"
fill="#000000" stroke="none">
<path d="M55 350 c-41 -81 -57 -160 -33 -160 10 0 18 14 22 41 7 43 54 145 63
136 3 -3 0 -22 -7 -43 -9 -26 -9 -38 -1 -43 7 -5 4 -19 -9 -46 -11 -22 -22
-59 -26 -82 -5 -35 -4 -43 9 -43 10 0 18 13 22 38 3 20 20 62 36 92 27 50 33
44 14 -17 -11 -35 18 -29 114 22 46 25 89 44 95 42 6 -2 -17 -18 -51 -36 -61
-30 -80 -51 -48 -51 9 0 43 14 76 31 33 16 66 28 72 26 7 -2 -18 -19 -55 -38
-38 -18 -68 -39 -68 -46 0 -19 14 -16 71 13 28 14 53 23 56 20 3 -2 -22 -19
-56 -35 -34 -17 -61 -38 -61 -46 0 -20 13 -19 61 6 23 11 43 18 46 15 3 -2
-40 -28 -96 -55 -76 -39 -111 -51 -146 -51 -33 0 -45 -4 -45 -15 0 -11 13 -15
54 -15 44 0 70 8 142 44 126 63 123 61 129 136 6 82 0 100 -31 100 -21 0 -24
5 -24 35 0 24 -6 37 -20 45 -11 6 -20 7 -20 3 0 -4 -5 0 -11 10 -15 25 -41 21
-119 -18 l-70 -35 0 26 c0 33 -17 64 -35 64 -8 0 -31 -32 -50 -70z"/>
</g>
</svg>
