<?xml version="1.0" standalone="no"?>
<!DOCTYPE svg PUBLIC "-//W3C//DTD SVG 20010904//EN"
 "http://www.w3.org/TR/2001/REC-SVG-20010904/DTD/svg10.dtd">
<svg version="1.0" xmlns="http://www.w3.org/2000/svg"
 width="48.000000pt" height="48.000000pt" viewBox="0 0 48.000000 48.000000"
 preserveAspectRatio="xMidYMid meet">
<metadata>
Created by potrace 1.16, written by Peter Selinger 2001-2019
</metadata>
<g transform="translate(0.000000,48.000000) scale(0.100000,-0.100000)"
fill="#000000" stroke="none">
<path d="M276 424 c-34 -35 -66 -102 -81 -172 l-7 -32 -79 0 -79 0 0 -85 0
-85 210 0 210 0 0 85 0 85 -75 0 c-91 0 -101 -18 -12 -22 l62 -3 0 -60 0 -60
-185 0 -185 0 0 60 0 60 68 3 67 3 0 -44 c0 -50 13 -67 51 -67 45 0 51 18 44
132 -7 101 -6 104 24 163 17 33 31 63 31 68 0 18 -32 4 -64 -29z"/>
</g>
</svg>
