<?xml version="1.0" standalone="no"?>
<!DOCTYPE svg PUBLIC "-//W3C//DTD SVG 20010904//EN"
 "http://www.w3.org/TR/2001/REC-SVG-20010904/DTD/svg10.dtd">
<svg version="1.0" xmlns="http://www.w3.org/2000/svg"
 width="50.000000pt" height="50.000000pt" viewBox="0 0 50.000000 50.000000"
 preserveAspectRatio="xMidYMid meet">
<metadata>
Created by potrace 1.16, written by Peter Selinger 2001-2019
</metadata>
<g transform="translate(0.000000,50.000000) scale(0.100000,-0.100000)"
fill="#000000" stroke="none">
<path d="M173 470 c-33 -20 -63 -65 -63 -97 0 -10 -7 -27 -15 -37 -20 -26 -19
-85 1 -107 12 -13 16 -37 16 -86 0 -77 14 -98 78 -120 45 -16 76 -16 120 0 77
28 78 29 77 110 0 53 4 81 16 98 26 36 22 111 -7 146 -13 15 -25 37 -27 48
-11 57 -132 85 -196 45z m157 -210 c23 -17 30 -29 30 -56 0 -25 -4 -34 -16
-34 -33 0 -64 -42 -64 -87 0 -41 -1 -43 -30 -43 -29 0 -30 1 -30 48 -1 56 -18
82 -54 82 -23 0 -26 4 -26 34 0 34 23 60 70 79 27 11 88 0 120 -23z"/>
</g>
</svg>
