<?xml version="1.0" standalone="no"?>
<!DOCTYPE svg PUBLIC "-//W3C//DTD SVG 20010904//EN"
 "http://www.w3.org/TR/2001/REC-SVG-20010904/DTD/svg10.dtd">
<svg version="1.0" xmlns="http://www.w3.org/2000/svg"
 width="48.000000pt" height="48.000000pt" viewBox="0 0 48.000000 48.000000"
 preserveAspectRatio="xMidYMid meet">
<metadata>
Created by potrace 1.16, written by Peter Selinger 2001-2019
</metadata>
<g transform="translate(0.000000,48.000000) scale(0.100000,-0.100000)"
fill="#000000" stroke="none">
<path d="M181 454 c-11 -15 -21 -35 -21 -45 0 -10 -9 -21 -20 -24 -32 -10 -53
-50 -48 -91 3 -29 -1 -42 -19 -60 -25 -25 -31 -80 -12 -116 14 -26 85 -58 132
-58 34 0 37 -2 37 -30 0 -17 5 -30 10 -30 6 0 10 17 10 39 0 35 4 42 50 72 47
33 64 59 37 59 -7 0 -29 -11 -50 -25 l-37 -26 0 29 c0 23 9 35 40 57 38 26 53
55 29 55 -6 0 -24 -9 -40 -21 l-29 -20 0 40 c0 32 5 44 25 57 27 17 34 44 12
44 -7 0 -18 -5 -25 -12 -9 -9 -12 -6 -12 15 0 15 -4 27 -10 27 -5 0 -10 -25
-10 -56 0 -55 0 -55 -22 -40 -28 20 -38 20 -38 1 0 -8 14 -24 30 -37 23 -17
30 -30 30 -55 l0 -34 -37 26 c-21 14 -43 25 -50 25 -27 0 -10 -26 37 -59 63
-42 68 -71 11 -71 -51 0 -105 36 -109 74 -4 30 21 66 46 66 10 0 12 6 7 23
-19 60 -17 74 10 96 15 11 34 21 42 21 10 0 12 6 8 20 -10 32 12 60 46 60 25
0 33 -6 42 -29 6 -16 20 -32 30 -35 16 -4 19 -11 14 -36 -6 -26 -3 -32 19 -40
23 -9 25 -14 20 -43 -5 -26 -2 -38 14 -52 44 -40 9 -108 -62 -122 -16 -3 -28
-12 -28 -19 0 -32 96 -3 124 37 20 29 21 89 1 115 -8 10 -15 36 -15 56 0 27
-6 42 -20 50 -12 8 -20 24 -20 41 0 19 -6 31 -17 34 -10 2 -27 19 -38 36 -17
26 -28 33 -62 35 -34 3 -44 -1 -62 -24z"/>
</g>
</svg>
