<?xml version="1.0" standalone="no"?>
<!DOCTYPE svg PUBLIC "-//W3C//DTD SVG 20010904//EN"
 "http://www.w3.org/TR/2001/REC-SVG-20010904/DTD/svg10.dtd">
<svg version="1.0" xmlns="http://www.w3.org/2000/svg"
 width="48.000000pt" height="48.000000pt" viewBox="0 0 48.000000 48.000000"
 preserveAspectRatio="xMidYMid meet">
<metadata>
Created by potrace 1.16, written by Peter Selinger 2001-2019
</metadata>
<g transform="translate(0.000000,48.000000) scale(0.100000,-0.100000)"
fill="#000000" stroke="none">
<path d="M36 431 c-10 -16 21 -32 83 -43 34 -6 61 -17 61 -23 0 -6 -9 -28 -20
-50 -25 -49 -27 -152 -4 -198 22 -43 64 -87 84 -87 20 0 62 44 84 87 23 46 21
149 -4 198 -11 22 -20 45 -20 51 0 6 21 15 47 19 64 9 93 22 93 40 0 18 -16
19 -77 3 -35 -8 -50 -8 -64 0 -10 7 -37 12 -59 12 -22 0 -49 -5 -59 -12 -14
-8 -29 -8 -64 0 -55 14 -74 15 -81 3z m244 -133 c29 -48 27 -134 -3 -179 -12
-19 -29 -34 -37 -34 -8 0 -25 15 -37 34 -45 66 -19 211 37 211 12 0 28 -13 40
-32z"/>
</g>
</svg>
