<?xml version="1.0" standalone="no"?>
<!DOCTYPE svg PUBLIC "-//W3C//DTD SVG 20010904//EN"
 "http://www.w3.org/TR/2001/REC-SVG-20010904/DTD/svg10.dtd">
<svg version="1.0" xmlns="http://www.w3.org/2000/svg"
 width="32.000000pt" height="32.000000pt" viewBox="0 0 32.000000 32.000000"
 preserveAspectRatio="xMidYMid meet">
<metadata>
Created by potrace 1.16, written by Peter Selinger 2001-2019
</metadata>
<g transform="translate(0.000000,32.000000) scale(0.100000,-0.100000)"
fill="#000000" stroke="none">
<path d="M147 224 c-48 -24 -85 -49 -82 -54 3 -6 -5 -10 -19 -10 -30 0 -31 -5
-10 -56 21 -50 19 -49 49 -30 14 9 25 14 25 11 0 -3 18 4 40 15 50 26 50 26
50 -10 0 -29 2 -30 45 -30 25 0 45 5 45 10 0 6 -16 10 -35 10 -32 0 -35 2 -35
29 0 25 6 31 35 41 19 6 35 18 35 26 0 19 -38 94 -48 93 -4 0 -47 -20 -95 -45z"/>
</g>
</svg>
