<?xml version="1.0" standalone="no"?>
<!DOCTYPE svg PUBLIC "-//W3C//DTD SVG 20010904//EN"
 "http://www.w3.org/TR/2001/REC-SVG-20010904/DTD/svg10.dtd">
<svg version="1.0" xmlns="http://www.w3.org/2000/svg"
 width="48.000000pt" height="48.000000pt" viewBox="0 0 48.000000 48.000000"
 preserveAspectRatio="xMidYMid meet">
<metadata>
Created by potrace 1.16, written by Peter Selinger 2001-2019
</metadata>
<g transform="translate(0.000000,48.000000) scale(0.100000,-0.100000)"
fill="#000000" stroke="none">
<path d="M94 415 c-9 -14 -23 -25 -31 -25 -8 0 -13 -7 -11 -17 2 -12 30 -24
98 -43 83 -22 90 -25 58 -28 -25 -2 -38 -8 -38 -17 0 -11 23 -15 105 -17 85
-2 103 -6 96 -16 -5 -8 -24 -17 -42 -21 -19 -4 -33 -12 -33 -17 1 -5 5 -24 9
-41 l7 -33 -72 0 c-70 0 -72 1 -66 23 3 12 6 25 6 30 0 4 23 7 50 7 38 0 50 4
50 15 0 12 -15 15 -74 15 -58 0 -79 4 -92 18 -17 16 -17 17 4 20 37 6 26 32
-13 32 -34 0 -35 -1 -35 -38 0 -43 14 -62 47 -62 13 0 23 -1 23 -2 0 -2 -9
-32 -20 -66 -11 -35 -20 -73 -20 -84 0 -32 32 -17 45 22 l12 35 87 3 c84 3 87
2 77 -17 -15 -27 -14 -47 5 -65 20 -20 48 -20 68 0 22 21 20 51 -5 72 -20 16
-28 32 -43 80 -6 19 -4 22 17 22 35 0 45 17 53 91 7 72 0 84 -54 95 -28 6 -32
4 -32 -14 0 -13 9 -22 25 -26 14 -4 25 -13 25 -22 0 -11 -6 -14 -22 -8 -13 4
-70 20 -127 35 -57 15 -106 30 -109 33 -15 16 38 16 94 1 49 -13 68 -15 77 -6
16 16 1 27 -62 45 -80 24 -117 21 -137 -9z"/>
</g>
</svg>
