<?xml version="1.0" standalone="no"?>
<!DOCTYPE svg PUBLIC "-//W3C//DTD SVG 20010904//EN"
 "http://www.w3.org/TR/2001/REC-SVG-20010904/DTD/svg10.dtd">
<svg version="1.0" xmlns="http://www.w3.org/2000/svg"
 width="50.000000pt" height="50.000000pt" viewBox="0 0 50.000000 50.000000"
 preserveAspectRatio="xMidYMid meet">
<metadata>
Created by potrace 1.16, written by Peter Selinger 2001-2019
</metadata>
<g transform="translate(0.000000,50.000000) scale(0.100000,-0.100000)"
fill="#000000" stroke="none">
<path d="M58 453 c-12 -3 -18 -14 -18 -34 l0 -29 100 0 c62 0 100 -4 100 -10
0 -20 -34 -62 -57 -71 -63 -24 -87 -170 -40 -240 l23 -34 84 0 84 0 23 34 c47
70 23 216 -40 240 -20 8 -57 50 -57 65 0 3 30 2 68 -1 70 -5 134 5 132 22 0 6
-26 9 -62 7 -69 -4 -128 4 -128 19 0 5 16 7 40 3 52 -8 150 4 150 19 0 9 -52
12 -193 13 -105 1 -200 0 -209 -3z"/>
</g>
</svg>
