<?xml version="1.0" standalone="no"?>
<!DOCTYPE svg PUBLIC "-//W3C//DTD SVG 20010904//EN"
 "http://www.w3.org/TR/2001/REC-SVG-20010904/DTD/svg10.dtd">
<svg version="1.0" xmlns="http://www.w3.org/2000/svg"
 width="50.000000pt" height="50.000000pt" viewBox="0 0 50.000000 50.000000"
 preserveAspectRatio="xMidYMid meet">
<metadata>
Created by potrace 1.16, written by Peter Selinger 2001-2019
</metadata>
<g transform="translate(0.000000,50.000000) scale(0.100000,-0.100000)"
fill="#000000" stroke="none">
<path d="M280 444 c-33 -31 -60 -64 -60 -72 0 -9 9 -25 20 -37 l20 -21 -92
-91 c-57 -55 -108 -95 -130 -104 -35 -12 -38 -16 -38 -49 0 -46 25 -70 71 -70
32 0 35 3 51 48 13 34 40 69 102 132 l85 84 24 -22 c13 -12 30 -22 39 -22 8 0
41 27 72 60 l57 59 -3 78 -3 78 -78 3 -78 3 -59 -57z m190 -32 c0 -56 -1 -59
-50 -107 -45 -45 -51 -48 -66 -34 -14 15 -14 19 5 50 37 61 18 77 -44 39 -29
-18 -34 -18 -45 -5 -11 14 -6 23 35 65 48 49 51 50 107 50 l58 0 0 -58z"/>
</g>
</svg>
