<?xml version="1.0" standalone="no"?>
<!DOCTYPE svg PUBLIC "-//W3C//DTD SVG 20010904//EN"
 "http://www.w3.org/TR/2001/REC-SVG-20010904/DTD/svg10.dtd">
<svg version="1.0" xmlns="http://www.w3.org/2000/svg"
 width="30.000000pt" height="30.000000pt" viewBox="0 0 30.000000 30.000000"
 preserveAspectRatio="xMidYMid meet">

<g transform="translate(0.000000,30.000000) scale(0.100000,-0.100000)"
fill="#000000" stroke="none">
<path d="M107 282 c-17 -18 -23 -42 -11 -42 3 0 14 10 24 23 17 19 21 20 40 9
28 -17 36 -10 15 12 -22 21 -48 20 -68 -2z"/>
<path d="M150 226 c-47 -13 -49 -17 -35 -83 l5 -22 63 21 c34 11 65 23 69 27
4 3 0 21 -7 39 -15 35 -24 37 -95 18z"/>
<path d="M57 193 c-2 -4 -7 -36 -11 -70 l-7 -62 37 -16 c36 -15 41 -14 111 11
67 25 73 29 73 55 0 35 -8 35 -79 8 -30 -11 -60 -18 -67 -15 -7 3 -16 24 -21
47 -8 40 -25 60 -36 42z"/>
</g>
</svg>
