<?xml version="1.0" standalone="no"?>
<!DOCTYPE svg PUBLIC "-//W3C//DTD SVG 20010904//EN"
 "http://www.w3.org/TR/2001/REC-SVG-20010904/DTD/svg10.dtd">
<svg version="1.0" xmlns="http://www.w3.org/2000/svg"
 width="30.000000pt" height="30.000000pt" viewBox="0 0 30.000000 30.000000"
 preserveAspectRatio="xMidYMid meet">

<g transform="translate(0.000000,30.000000) scale(0.100000,-0.100000)"
fill="#000000" stroke="none">
<path d="M94 215 c-14 -14 -24 -33 -22 -43 8 -40 148 -40 156 0 5 27 -42 68
-78 68 -20 0 -40 -9 -56 -25z"/>
<path d="M26 143 c-34 -18 -31 -43 9 -63 41 -20 189 -20 230 0 40 21 43 45 7
64 -26 13 -30 13 -45 -1 -8 -9 -39 -18 -67 -21 -41 -4 -57 -1 -79 15 -25 19
-30 19 -55 6z"/>
</g>
</svg>
