<?xml version="1.0" standalone="no"?>
<!DOCTYPE svg PUBLIC "-//W3C//DTD SVG 20010904//EN"
 "http://www.w3.org/TR/2001/REC-SVG-20010904/DTD/svg10.dtd">
<svg version="1.0" xmlns="http://www.w3.org/2000/svg"
 width="24.000000pt" height="24.000000pt" viewBox="0 0 24.000000 24.000000"
 preserveAspectRatio="xMidYMid meet">

<g transform="translate(0.000000,24.000000) scale(0.100000,-0.100000)"
fill="#000000" stroke="none">
<path d="M77 234 c-4 -4 -7 -24 -7 -45 0 -37 1 -38 25 -27 19 8 31 8 51 0 25
-12 25 -12 22 30 -3 42 -4 43 -43 46 -23 2 -44 0 -48 -4z m53 -24 c0 -5 -4
-10 -10 -10 -5 0 -10 5 -10 10 0 6 5 10 10 10 6 0 10 -4 10 -10z"/>
<path d="M81 134 c-30 -25 -42 -64 -21 -64 6 0 10 6 10 13 0 8 9 22 20 32 19
18 20 17 20 -3 0 -12 5 -22 10 -22 6 0 10 10 10 22 0 20 1 21 20 3 11 -10 20
-24 20 -32 0 -7 5 -13 10 -13 21 0 9 39 -21 64 -17 14 -34 26 -39 26 -5 0 -22
-12 -39 -26z"/>
<path d="M81 72 c-19 -46 -9 -62 39 -62 48 0 58 16 39 62 -7 17 -15 26 -17 20
-2 -7 -12 -12 -22 -12 -10 0 -20 5 -22 12 -2 6 -10 -3 -17 -20z m49 -32 c0 -5
-4 -10 -10 -10 -5 0 -10 5 -10 10 0 6 5 10 10 10 6 0 10 -4 10 -10z"/>
</g>
</svg>
