<?xml version="1.0" standalone="no"?>
<!DOCTYPE svg PUBLIC "-//W3C//DTD SVG 20010904//EN"
 "http://www.w3.org/TR/2001/REC-SVG-20010904/DTD/svg10.dtd">
<svg version="1.0" xmlns="http://www.w3.org/2000/svg"
 width="32.000000pt" height="32.000000pt" viewBox="0 0 32.000000 32.000000"
 preserveAspectRatio="xMidYMid meet">

<g transform="translate(0.000000,32.000000) scale(0.100000,-0.100000)"
fill="#000000" stroke="none">
<path d="M57 217 l-41 -50 32 -28 c23 -20 32 -38 32 -59 l0 -30 80 0 80 0 0
32 c0 23 10 42 32 65 l32 33 -42 42 c-39 40 -45 42 -103 43 l-61 1 -41 -49z
m185 -5 c27 -26 29 -33 18 -47 -10 -12 -16 -13 -26 -4 -12 9 -14 2 -14 -40 l0
-51 -60 0 -60 0 0 51 c0 44 -2 50 -15 39 -15 -13 -35 -6 -35 13 0 6 13 25 30
42 25 26 36 30 80 29 43 0 56 -5 82 -32z"/>
</g>
</svg>
