<?xml version="1.0" standalone="no"?>
<!DOCTYPE svg PUBLIC "-//W3C//DTD SVG 20010904//EN"
 "http://www.w3.org/TR/2001/REC-SVG-20010904/DTD/svg10.dtd">
<svg version="1.0" xmlns="http://www.w3.org/2000/svg"
 width="50.000000pt" height="50.000000pt" viewBox="0 0 50.000000 50.000000"
 preserveAspectRatio="xMidYMid meet">
<metadata>
Created by potrace 1.16, written by Peter Selinger 2001-2019
</metadata>
<g transform="translate(0.000000,50.000000) scale(0.100000,-0.100000)"
fill="#000000" stroke="none">
<path d="M95 482 c-20 -14 -16 -115 7 -165 l22 -48 -22 -45 c-12 -24 -22 -57
-22 -72 0 -23 7 -30 46 -46 25 -10 57 -34 72 -52 37 -46 72 -46 107 0 15 19
46 45 71 56 52 25 56 45 23 113 l-21 43 22 48 c17 38 20 57 14 85 -5 20 -7 46
-6 58 4 32 -17 38 -28 9 -7 -18 -17 -26 -34 -26 -14 0 -41 -14 -60 -30 l-34
-30 -30 29 c-16 16 -45 33 -64 36 -21 4 -39 15 -44 26 -5 10 -13 15 -19 11z
m107 -102 c35 -38 62 -38 100 0 55 55 116 22 71 -39 -24 -31 -65 -38 -99 -16
-22 14 -26 14 -48 0 -53 -35 -127 11 -112 70 6 23 11 26 34 21 15 -4 39 -20
54 -36z m111 -98 c26 -3 37 -9 37 -21 0 -9 9 -33 20 -54 25 -47 25 -54 -2 -63
-12 -3 -43 -27 -70 -52 l-49 -45 -42 41 c-23 22 -54 45 -69 51 -33 12 -35 26
-8 66 11 17 20 40 20 53 0 18 6 22 33 22 17 0 39 5 47 10 8 5 22 7 30 3 8 -3
32 -8 53 -11z"/>
</g>
</svg>
