<?xml version="1.0" standalone="no"?>
<!DOCTYPE svg PUBLIC "-//W3C//DTD SVG 20010904//EN"
 "http://www.w3.org/TR/2001/REC-SVG-20010904/DTD/svg10.dtd">
<svg version="1.0" xmlns="http://www.w3.org/2000/svg"
 width="50.000000pt" height="50.000000pt" viewBox="0 0 50.000000 50.000000"
 preserveAspectRatio="xMidYMid meet">
<metadata>
Created by potrace 1.16, written by Peter Selinger 2001-2019
</metadata>
<g transform="translate(0.000000,50.000000) scale(0.100000,-0.100000)"
fill="#000000" stroke="none">
<path d="M214 485 c-4 -8 -4 -29 -2 -45 4 -25 1 -30 -16 -30 -11 0 -31 -10
-45 -22 l-26 -23 23 26 c28 32 17 43 -33 33 -53 -10 -85 -39 -85 -79 0 -35 22
-61 41 -49 9 5 10 2 6 -10 -12 -30 11 -54 66 -72 49 -15 54 -20 79 -75 20 -44
32 -59 47 -59 27 0 27 26 -1 103 -18 51 -27 62 -59 76 l-38 17 30 31 31 30 60
-18 c68 -22 94 -24 104 -8 10 17 -15 34 -96 65 -73 28 -74 29 -40 34 33 5 35
7 35 45 0 39 -1 40 -38 43 -27 2 -39 -1 -43 -13z"/>
<path d="M326 254 c-21 -21 -26 -36 -26 -74 0 -66 34 -100 100 -100 66 0 100
34 100 100 0 38 -5 53 -26 74 -21 21 -36 26 -74 26 -38 0 -53 -5 -74 -26z
m124 -24 c43 -43 11 -120 -50 -120 -38 0 -70 32 -70 70 0 38 32 70 70 70 17 0
39 -9 50 -20z"/>
<path d="M26 174 c-37 -38 -37 -110 0 -148 38 -37 110 -37 148 0 37 38 37 110
0 148 -21 21 -36 26 -74 26 -38 0 -53 -5 -74 -26z m124 -24 c26 -26 26 -74 0
-100 -26 -26 -74 -26 -100 0 -43 43 -11 120 50 120 17 0 39 -9 50 -20z"/>
</g>
</svg>
