<?xml version="1.0" standalone="no"?>
<!DOCTYPE svg PUBLIC "-//W3C//DTD SVG 20010904//EN"
 "http://www.w3.org/TR/2001/REC-SVG-20010904/DTD/svg10.dtd">
<svg version="1.0" xmlns="http://www.w3.org/2000/svg"
 width="50.000000pt" height="50.000000pt" viewBox="0 0 50.000000 50.000000"
 preserveAspectRatio="xMidYMid meet">
<metadata>
Created by potrace 1.16, written by Peter Selinger 2001-2019
</metadata>
<g transform="translate(0.000000,50.000000) scale(0.100000,-0.100000)"
fill="#000000" stroke="none">
<path d="M115 455 c-19 -18 -25 -35 -25 -69 0 -39 4 -49 30 -68 28 -21 30 -25
28 -87 -1 -47 -3 -54 -5 -26 -3 22 -9 45 -15 52 -14 17 -83 17 -96 0 -6 -7
-11 -45 -11 -85 l0 -72 180 0 179 0 0 25 c0 15 6 25 15 25 10 0 15 -16 17 -62
3 -63 3 -63 33 -63 l30 0 3 83 c2 49 -2 89 -8 97 -9 11 -41 17 -197 32 -59 5
-63 7 -63 30 0 15 12 37 30 53 24 22 30 36 30 69 0 57 -33 91 -90 91 -30 0
-47 -6 -65 -25z m75 -194 l0 -38 69 -12 c39 -6 92 -11 120 -11 68 0 83 -17 79
-86 -4 -71 -22 -70 -26 1 l-3 54 -127 3 -127 3 -3 63 c-2 38 1 62 8 62 5 0 10
-17 10 -39z"/>
</g>
</svg>
