<?xml version="1.0" standalone="no"?>
<!DOCTYPE svg PUBLIC "-//W3C//DTD SVG 20010904//EN"
 "http://www.w3.org/TR/2001/REC-SVG-20010904/DTD/svg10.dtd">
<svg version="1.0" xmlns="http://www.w3.org/2000/svg"
 width="50.000000pt" height="50.000000pt" viewBox="0 0 50.000000 50.000000"
 preserveAspectRatio="xMidYMid meet">
<metadata>
Created by potrace 1.16, written by Peter Selinger 2001-2019
</metadata>
<g transform="translate(0.000000,50.000000) scale(0.100000,-0.100000)"
fill="#000000" stroke="none">
<path d="M62 305 c-34 -72 -62 -136 -62 -143 0 -14 41 -32 75 -32 17 0 27 9
38 38 13 32 16 34 22 17 27 -80 38 -94 83 -110 62 -21 72 -20 184 17 67 22 98
37 98 48 0 8 -25 78 -57 155 l-57 140 -131 0 -130 0 -63 -130z m354 -28 c37
-88 49 -129 41 -132 -7 -3 -45 -16 -85 -29 l-73 -25 -9 22 c-6 12 -34 80 -64
152 l-54 130 81 6 c45 3 88 5 96 5 9 -1 36 -53 67 -129z m-215 -35 c32 -75 54
-138 49 -140 -4 -1 -19 2 -33 7 -21 8 -30 24 -50 88 -14 43 -30 78 -37 78 -7
0 -21 -25 -32 -55 -25 -67 -22 -63 -47 -55 -19 6 -18 11 32 111 28 57 54 104
57 104 3 0 30 -62 61 -138z"/>
</g>
</svg>
