<?xml version="1.0" standalone="no"?>
<!DOCTYPE svg PUBLIC "-//W3C//DTD SVG 20010904//EN"
 "http://www.w3.org/TR/2001/REC-SVG-20010904/DTD/svg10.dtd">
<svg version="1.0" xmlns="http://www.w3.org/2000/svg"
 width="50.000000pt" height="50.000000pt" viewBox="0 0 50.000000 50.000000"
 preserveAspectRatio="xMidYMid meet">
<metadata>
Created by potrace 1.16, written by Peter Selinger 2001-2019
</metadata>
<g transform="translate(0.000000,50.000000) scale(0.100000,-0.100000)"
fill="#000000" stroke="none">
<path d="M143 459 c-88 -44 -127 -117 -121 -224 4 -85 33 -138 100 -182 62
-41 194 -41 256 0 23 15 54 46 69 69 25 37 28 50 28 128 0 78 -3 91 -28 128
-45 69 -97 96 -186 100 -62 2 -84 -1 -118 -19z m97 -74 c0 -47 -56 -90 -106
-80 -24 4 -39 14 -46 31 -10 21 -8 28 17 54 15 16 41 35 58 43 42 21 77 -1 77
-48z m142 15 c39 -34 42 -39 31 -63 -18 -38 -72 -46 -112 -16 -26 19 -31 30
-31 62 0 44 21 68 52 59 10 -2 37 -21 60 -42z m-215 -175 c12 -34 11 -41 -8
-71 -30 -48 -62 -46 -89 6 -42 82 -18 139 49 116 27 -10 38 -21 48 -51z m283
7 c0 -18 -9 -51 -20 -72 -27 -52 -59 -54 -89 -6 -19 30 -20 37 -8 71 11 30 21
41 48 50 46 16 69 1 69 -43z m-136 -99 c23 -33 24 -40 12 -57 -26 -41 -126
-41 -152 0 -15 22 -14 25 11 59 23 29 34 35 66 35 33 0 42 -5 63 -37z"/>
</g>
</svg>
