<?xml version="1.0" standalone="no"?>
<!DOCTYPE svg PUBLIC "-//W3C//DTD SVG 20010904//EN"
 "http://www.w3.org/TR/2001/REC-SVG-20010904/DTD/svg10.dtd">
<svg version="1.0" xmlns="http://www.w3.org/2000/svg"
 width="50.000000pt" height="50.000000pt" viewBox="0 0 50.000000 50.000000"
 preserveAspectRatio="xMidYMid meet">
<metadata>
Created by potrace 1.16, written by Peter Selinger 2001-2019
</metadata>
<g transform="translate(0.000000,50.000000) scale(0.100000,-0.100000)"
fill="#000000" stroke="none">
<path d="M372 450 c-13 -11 -39 -22 -58 -26 -19 -3 -34 -11 -34 -16 0 -6 -6
-8 -14 -5 -8 3 -17 3 -20 0 -4 -4 -23 -8 -44 -10 -71 -7 -97 -18 -100 -43 -3
-14 3 -29 13 -36 27 -20 11 -42 -42 -57 -40 -12 -49 -18 -51 -41 -2 -17 7 -43
25 -70 15 -24 36 -58 45 -75 15 -27 22 -31 59 -31 43 0 68 19 127 99 13 17 42
39 65 49 45 20 112 87 127 128 15 38 12 107 -6 132 -19 27 -60 28 -92 2z m58
-32 c0 -39 -35 -84 -69 -91 -22 -5 -32 -14 -37 -32 -7 -27 -78 -84 -137 -108
-20 -9 -40 -23 -43 -32 -4 -8 -14 -20 -24 -25 -14 -7 -22 -1 -44 31 -33 51
-33 56 4 64 68 15 108 88 62 114 -16 9 -16 10 2 17 12 5 21 3 24 -4 5 -15 32
-16 32 -1 0 8 6 7 17 -2 11 -10 17 -11 20 -3 2 7 13 10 23 7 11 -3 20 -1 20 5
0 6 9 8 20 5 15 -4 20 0 20 13 0 15 2 16 9 5 10 -15 31 -7 31 12 0 11 45 44
63 46 4 1 7 -9 7 -21z"/>
</g>
</svg>
