<?xml version="1.0" standalone="no"?>
<!DOCTYPE svg PUBLIC "-//W3C//DTD SVG 20010904//EN"
 "http://www.w3.org/TR/2001/REC-SVG-20010904/DTD/svg10.dtd">
<svg version="1.0" xmlns="http://www.w3.org/2000/svg"
 width="50.000000pt" height="50.000000pt" viewBox="0 0 50.000000 50.000000"
 preserveAspectRatio="xMidYMid meet">
<metadata>
Created by potrace 1.16, written by Peter Selinger 2001-2019
</metadata>
<g transform="translate(0.000000,50.000000) scale(0.100000,-0.100000)"
fill="#000000" stroke="none">
<path d="M367 462 c-63 -51 -297 -279 -297 -291 0 -6 -11 -11 -25 -11 -20 0
-25 -5 -25 -25 0 -14 5 -25 10 -25 6 0 10 7 10 15 0 21 23 19 37 -4 10 -16 8
-22 -13 -42 -28 -26 -32 -59 -6 -58 9 0 94 88 192 200 l175 200 3 -37 c3 -35
-1 -42 -52 -90 -33 -30 -56 -59 -56 -71 0 -12 -7 -23 -15 -27 -19 -7 -21 -82
-2 -93 20 -11 29 -53 11 -46 -9 3 -14 -2 -14 -16 0 -17 6 -21 30 -21 25 0 30
4 30 23 0 13 -6 29 -12 36 -11 10 -10 14 5 22 20 12 23 69 5 99 -12 19 -7 26
45 74 55 52 57 55 57 105 0 58 -11 85 -39 101 -15 7 -26 4 -54 -18z"/>
</g>
</svg>
