<?xml version="1.0" standalone="no"?>
<!DOCTYPE svg PUBLIC "-//W3C//DTD SVG 20010904//EN"
 "http://www.w3.org/TR/2001/REC-SVG-20010904/DTD/svg10.dtd">
<svg version="1.0" xmlns="http://www.w3.org/2000/svg"
 width="50.000000pt" height="50.000000pt" viewBox="0 0 50.000000 50.000000"
 preserveAspectRatio="xMidYMid meet">
<metadata>
Created by potrace 1.16, written by Peter Selinger 2001-2019
</metadata>
<g transform="translate(0.000000,50.000000) scale(0.100000,-0.100000)"
fill="#000000" stroke="none">
<path d="M223 430 c-27 -11 -46 -46 -40 -71 4 -16 0 -19 -25 -19 -27 0 -30 -2
-24 -26 4 -16 2 -32 -6 -41 -16 -20 -12 -194 6 -205 6 -4 65 -8 131 -8 l121 0
-1 60 c0 33 -4 60 -9 60 -5 0 -6 14 -3 30 4 18 2 30 -4 30 -6 0 -8 9 -4 20 4
11 2 20 -4 20 -6 0 -11 14 -11 30 0 23 -5 30 -19 30 -14 0 -17 6 -14 23 9 44
-49 85 -94 67z"/>
</g>
</svg>
