<?xml version="1.0" standalone="no"?>
<!DOCTYPE svg PUBLIC "-//W3C//DTD SVG 20010904//EN"
 "http://www.w3.org/TR/2001/REC-SVG-20010904/DTD/svg10.dtd">
<svg version="1.0" xmlns="http://www.w3.org/2000/svg"
 width="50.000000pt" height="50.000000pt" viewBox="0 0 50.000000 50.000000"
 preserveAspectRatio="xMidYMid meet">
<metadata>
Created by potrace 1.16, written by Peter Selinger 2001-2019
</metadata>
<g transform="translate(0.000000,50.000000) scale(0.100000,-0.100000)"
fill="#000000" stroke="none">
<path d="M394 486 c-6 -7 -14 -21 -18 -32 -3 -11 -21 -34 -39 -52 -31 -30 -35
-31 -69 -20 -48 14 -92 -3 -108 -43 -10 -23 -22 -32 -57 -40 -65 -17 -103 -57
-103 -110 0 -91 96 -189 185 -189 39 0 52 5 75 30 15 16 32 49 39 73 8 34 17
47 39 56 44 18 58 53 45 104 -11 40 -10 43 20 74 17 18 40 36 51 39 11 4 26
12 33 20 19 18 16 68 -5 87 -22 20 -72 22 -88 3z m-134 -136 c12 -9 6 -19 -37
-59 -54 -49 -67 -83 -41 -109 26 -26 62 -13 106 38 47 55 58 60 67 30 9 -28
-10 -56 -44 -68 -21 -7 -32 -19 -37 -39 -11 -53 -15 -61 -35 -87 -28 -36 -74
-35 -126 3 -106 77 -108 185 -4 207 46 10 71 23 71 39 0 18 35 55 53 55 6 0
19 -5 27 -10z"/>
</g>
</svg>
