<?xml version="1.0" standalone="no"?>
<!DOCTYPE svg PUBLIC "-//W3C//DTD SVG 20010904//EN"
 "http://www.w3.org/TR/2001/REC-SVG-20010904/DTD/svg10.dtd">
<svg version="1.0" xmlns="http://www.w3.org/2000/svg"
 width="50.000000pt" height="50.000000pt" viewBox="0 0 50.000000 50.000000"
 preserveAspectRatio="xMidYMid meet">
<metadata>
Created by potrace 1.16, written by Peter Selinger 2001-2019
</metadata>
<g transform="translate(0.000000,50.000000) scale(0.100000,-0.100000)"
fill="#000000" stroke="none">
<path d="M143 459 c-88 -44 -127 -117 -121 -224 4 -85 33 -138 100 -182 62
-41 194 -41 256 0 23 15 54 46 69 69 25 37 28 50 28 128 0 78 -3 91 -28 128
-45 69 -97 96 -186 100 -62 2 -84 -1 -118 -19z m167 -18 c0 -5 -9 -30 -20 -55
-17 -40 -23 -46 -50 -46 -19 0 -40 -9 -55 -25 -16 -15 -25 -36 -25 -55 0 -27
-6 -33 -46 -50 -25 -11 -50 -20 -55 -20 -15 0 -10 109 6 145 19 38 58 78 100
99 32 17 145 22 145 7z m140 -188 c0 -69 -26 -121 -83 -167 -33 -26 -48 -31
-108 -34 -43 -3 -69 0 -69 6 0 6 9 31 20 56 17 40 23 46 50 46 41 0 80 39 80
80 0 27 6 33 43 50 65 29 67 27 67 -37z"/>
</g>
</svg>
