<?xml version="1.0" standalone="no"?>
<!DOCTYPE svg PUBLIC "-//W3C//DTD SVG 20010904//EN"
 "http://www.w3.org/TR/2001/REC-SVG-20010904/DTD/svg10.dtd">
<svg version="1.0" xmlns="http://www.w3.org/2000/svg"
 width="50.000000pt" height="50.000000pt" viewBox="0 0 50.000000 50.000000"
 preserveAspectRatio="xMidYMid meet">
<metadata>
Created by potrace 1.16, written by Peter Selinger 2001-2019
</metadata>
<g transform="translate(0.000000,50.000000) scale(0.100000,-0.100000)"
fill="#000000" stroke="none">
<path d="M70 250 l0 -230 143 0 143 0 37 38 37 38 0 192 0 192 -180 0 -180 0
0 -230z m340 40 l0 -170 -40 0 -40 0 0 -40 0 -40 -120 0 -120 0 0 210 0 210
160 0 160 0 0 -170z"/>
<path d="M110 235 l0 -175 105 0 c63 0 105 4 105 10 0 6 -38 10 -95 10 l-95 0
0 155 0 155 120 0 120 0 0 -130 c0 -80 4 -130 10 -130 6 0 10 53 10 140 l0
140 -140 0 -140 0 0 -175z"/>
</g>
</svg>
