<?xml version="1.0" standalone="no"?>
<!DOCTYPE svg PUBLIC "-//W3C//DTD SVG 20010904//EN"
 "http://www.w3.org/TR/2001/REC-SVG-20010904/DTD/svg10.dtd">
<svg version="1.0" xmlns="http://www.w3.org/2000/svg"
 width="50.000000pt" height="50.000000pt" viewBox="0 0 50.000000 50.000000"
 preserveAspectRatio="xMidYMid meet">
<metadata>
Created by potrace 1.16, written by Peter Selinger 2001-2019
</metadata>
<g transform="translate(0.000000,50.000000) scale(0.100000,-0.100000)"
fill="#000000" stroke="none">
<path d="M143 459 c-88 -44 -127 -117 -121 -224 4 -85 33 -138 100 -182 62
-41 194 -41 256 0 23 15 54 46 69 69 25 37 28 50 28 128 0 78 -3 91 -28 128
-45 69 -97 96 -186 100 -62 2 -84 -1 -118 -19z m215 -37 c60 -43 86 -88 90
-157 8 -130 -83 -221 -213 -213 -128 8 -206 117 -181 251 8 41 63 108 108 131
49 25 153 18 196 -12z"/>
<path d="M103 354 c-7 -3 -13 -19 -13 -35 l0 -29 108 -2 c86 -2 93 -3 32 -5
-107 -4 -120 -9 -120 -39 0 -16 8 -28 23 -34 12 -5 16 -9 10 -9 -7 -1 -13 -12
-13 -26 0 -24 2 -25 68 -24 37 0 80 -4 95 -10 16 -6 38 -11 49 -11 17 0 20 5
16 30 -4 24 -1 30 14 30 13 0 18 7 18 25 0 21 -9 30 -42 46 -24 11 -32 17 -18
14 14 -4 40 -9 58 -12 30 -5 32 -3 32 24 0 48 -50 66 -190 70 -63 1 -121 0
-127 -3z"/>
</g>
</svg>
