<?xml version="1.0" standalone="no"?>
<!DOCTYPE svg PUBLIC "-//W3C//DTD SVG 20010904//EN"
 "http://www.w3.org/TR/2001/REC-SVG-20010904/DTD/svg10.dtd">
<svg version="1.0" xmlns="http://www.w3.org/2000/svg"
 width="32.000000pt" height="32.000000pt" viewBox="0 0 32.000000 32.000000"
 preserveAspectRatio="xMidYMid meet">

<g transform="translate(0.000000,32.000000) scale(0.100000,-0.100000)"
fill="#000000" stroke="none">
<path d="M50 301 c0 -11 -9 -23 -20 -26 -13 -4 -20 -15 -20 -31 0 -23 2 -24
80 -24 78 0 80 1 80 24 0 16 -7 27 -20 31 -11 3 -20 15 -20 26 0 16 -7 19 -40
19 -33 0 -40 -3 -40 -19z m60 -15 c0 -8 9 -18 20 -21 39 -12 19 -25 -40 -25
-59 0 -79 13 -40 25 11 3 20 13 20 21 0 8 9 14 20 14 11 0 20 -6 20 -14z"/>
<path d="M13 184 c-9 -4 -13 -32 -13 -90 l0 -84 160 0 160 0 0 85 0 85 -72 1
c-40 0 -107 2 -148 4 -41 2 -81 1 -87 -1z m147 -89 l0 -65 -70 0 -70 0 0 65 0
65 70 0 70 0 0 -65z m140 35 l0 -30 -60 0 -60 0 0 30 0 30 60 0 60 0 0 -30z
m0 -75 c0 -24 -3 -25 -60 -25 -57 0 -60 1 -60 25 0 24 3 25 60 25 57 0 60 -1
60 -25z"/>
<path d="M40 95 l0 -45 50 0 50 0 0 45 0 45 -50 0 -50 0 0 -45z m80 0 c0 -21
-5 -25 -30 -25 -25 0 -30 4 -30 25 0 21 5 25 30 25 25 0 30 -4 30 -25z"/>
<path d="M200 130 c0 -5 18 -10 40 -10 22 0 40 5 40 10 0 6 -18 10 -40 10 -22
0 -40 -4 -40 -10z"/>
</g>
</svg>