<?xml version="1.0" standalone="no"?>
<!DOCTYPE svg PUBLIC "-//W3C//DTD SVG 20010904//EN"
 "http://www.w3.org/TR/2001/REC-SVG-20010904/DTD/svg10.dtd">
<svg version="1.0" xmlns="http://www.w3.org/2000/svg"
 width="50.000000pt" height="50.000000pt" viewBox="0 0 50.000000 50.000000"
 preserveAspectRatio="xMidYMid meet">
<metadata>
Created by potrace 1.16, written by Peter Selinger 2001-2019
</metadata>
<g transform="translate(0.000000,50.000000) scale(0.100000,-0.100000)"
fill="#000000" stroke="none">
<path d="M22 408 c-17 -17 -17 -289 0 -306 17 -17 439 -17 456 0 17 17 17 289
0 306 -17 17 -439 17 -456 0z m138 -33 c0 -14 5 -25 10 -25 6 0 10 11 10 25
l0 25 129 0 c152 0 161 -4 161 -81 l0 -49 -104 0 c-59 0 -108 -4 -111 -10 -4
-6 33 -10 104 -10 l111 0 0 -54 c0 -82 -7 -86 -161 -86 l-129 0 0 55 c0 30 -4
55 -10 55 -5 0 -10 -25 -10 -55 l0 -55 -49 0 c-66 0 -81 16 -81 86 0 54 0 54
31 54 17 0 28 4 24 10 -3 6 -17 10 -31 10 -22 0 -24 4 -24 49 0 32 6 55 16 65
10 10 33 16 65 16 46 0 49 -2 49 -25z"/>
<path d="M90 335 c-18 -22 -8 -68 17 -81 21 -10 21 -12 6 -27 -13 -13 -14 -20
-5 -29 9 -9 17 -6 37 12 l25 23 25 -23 c20 -18 28 -21 37 -12 9 9 8 16 -5 29
-15 15 -15 17 6 27 25 13 35 59 17 81 -7 9 -34 13 -80 13 -46 0 -73 -4 -80
-13z"/>
</g>
</svg>
