<?xml version="1.0" standalone="no"?>
<!DOCTYPE svg PUBLIC "-//W3C//DTD SVG 20010904//EN"
 "http://www.w3.org/TR/2001/REC-SVG-20010904/DTD/svg10.dtd">
<svg version="1.0" xmlns="http://www.w3.org/2000/svg"
 width="50.000000pt" height="50.000000pt" viewBox="0 0 50.000000 50.000000"
 preserveAspectRatio="xMidYMid meet">
<metadata>
Created by potrace 1.16, written by Peter Selinger 2001-2019
</metadata>
<g transform="translate(0.000000,50.000000) scale(0.100000,-0.100000)"
fill="#000000" stroke="none">
<path d="M50 478 c-13 -14 -20 -35 -20 -59 0 -30 7 -43 35 -67 l34 -31 -47 -3
-47 -3 0 -155 0 -155 245 0 245 0 0 155 0 155 -47 3 -47 3 34 31 c28 24 35 37
35 67 0 49 -29 81 -75 81 -31 0 -39 -6 -75 -60 -34 -50 -45 -60 -70 -60 -25 0
-36 10 -70 60 -36 54 -44 60 -75 60 -22 0 -41 -8 -55 -22z m160 -228 l0 -50
-95 0 -95 0 0 38 c0 55 12 62 107 62 l83 0 0 -50z m258 38 c7 -7 12 -29 12
-50 l0 -38 -95 0 -95 0 0 50 0 50 83 0 c51 0 88 -5 95 -12z m-258 -218 l0 -50
-83 0 c-95 0 -107 7 -107 62 l0 38 95 0 95 0 0 -50z m270 12 c0 -55 -12 -62
-107 -62 l-83 0 0 50 0 50 95 0 95 0 0 -38z"/>
</g>
</svg>
