<?xml version="1.0" standalone="no"?>
<!DOCTYPE svg PUBLIC "-//W3C//DTD SVG 20010904//EN"
 "http://www.w3.org/TR/2001/REC-SVG-20010904/DTD/svg10.dtd">
<svg version="1.0" xmlns="http://www.w3.org/2000/svg"
 width="50.000000pt" height="50.000000pt" viewBox="0 0 50.000000 50.000000"
 preserveAspectRatio="xMidYMid meet">
<metadata>
Created by potrace 1.16, written by Peter Selinger 2001-2019
</metadata>
<g transform="translate(0.000000,50.000000) scale(0.100000,-0.100000)"
fill="#000000" stroke="none">
<path d="M77 483 c-13 -13 -7 -77 10 -95 15 -17 14 -18 -30 -18 l-47 0 0 -55
c0 -30 5 -55 10 -55 6 0 10 -48 10 -125 l0 -125 220 0 220 0 0 125 c0 77 4
125 10 125 6 0 10 25 10 55 l0 55 -47 0 c-45 0 -46 1 -29 19 12 13 16 32 14
58 -3 34 -6 38 -32 41 -48 6 -70 -6 -99 -53 -35 -55 -58 -57 -87 -10 -12 20
-29 42 -37 50 -14 15 -84 21 -96 8z m213 -293 l0 -160 -40 0 -40 0 0 160 0
160 40 0 40 0 0 -160z m-100 -45 l0 -115 -70 0 -70 0 0 115 0 115 70 0 70 0 0
-115z m260 0 l0 -115 -70 0 -70 0 0 115 0 115 70 0 70 0 0 -115z"/>
</g>
</svg>
