<?xml version="1.0" standalone="no"?>
<!DOCTYPE svg PUBLIC "-//W3C//DTD SVG 20010904//EN"
 "http://www.w3.org/TR/2001/REC-SVG-20010904/DTD/svg10.dtd">
<svg version="1.0" xmlns="http://www.w3.org/2000/svg"
 width="48.000000pt" height="48.000000pt" viewBox="0 0 48.000000 48.000000"
 preserveAspectRatio="xMidYMid meet">

<g transform="translate(0.000000,48.000000) scale(0.100000,-0.100000)"
fill="#000000" stroke="none">
<path d="M73 390 c-10 -11 -30 -32 -46 -47 -32 -31 -35 -68 -7 -85 15 -10 20
-24 20 -59 0 -31 7 -55 20 -72 11 -14 20 -32 20 -41 0 -9 7 -16 15 -16 8 0 15
7 15 15 0 13 21 15 130 15 109 0 130 -2 130 -15 0 -8 7 -15 15 -15 8 0 15 7
15 16 0 9 9 27 20 41 13 17 20 41 20 72 0 35 5 49 20 59 28 17 25 54 -7 85
-16 15 -36 36 -45 47 -17 18 -31 20 -168 20 -137 0 -151 -2 -167 -20z m315
-22 c9 -9 5 -17 -13 -34 -14 -13 -25 -34 -25 -49 l0 -25 -110 0 -110 0 0 25
c0 15 -11 36 -25 49 -41 38 -18 46 135 46 90 0 140 -4 148 -12z m-300 -60 c7
-7 12 -40 12 -80 l0 -68 140 0 140 0 0 69 c0 72 12 96 47 89 26 -5 29 -38 4
-45 -18 -5 -21 -13 -21 -62 0 -31 -5 -62 -12 -69 -17 -17 -299 -17 -316 0 -7
7 -12 38 -12 70 0 44 -4 58 -14 58 -19 0 -29 17 -22 35 7 18 37 20 54 3z m260
-100 c3 -16 -7 -18 -107 -18 -86 0 -111 3 -111 13 0 25 13 28 114 25 87 -3
101 -5 104 -20z"/>
<path d="M170 315 c0 -8 7 -15 15 -15 8 0 15 7 15 15 0 8 -7 15 -15 15 -8 0
-15 -7 -15 -15z"/>
<path d="M280 315 c0 -8 7 -15 15 -15 8 0 15 7 15 15 0 8 -7 15 -15 15 -8 0
-15 -7 -15 -15z"/>
</g>
</svg>
