<?xml version="1.0" standalone="no"?>
<!DOCTYPE svg PUBLIC "-//W3C//DTD SVG 20010904//EN"
 "http://www.w3.org/TR/2001/REC-SVG-20010904/DTD/svg10.dtd">
<svg version="1.0" xmlns="http://www.w3.org/2000/svg"
 width="48.000000pt" height="48.000000pt" viewBox="0 0 48.000000 48.000000"
 preserveAspectRatio="xMidYMid meet">

<g transform="translate(0.000000,48.000000) scale(0.100000,-0.100000)"
fill="#000000" stroke="none">
<path d="M52 418 c-8 -8 -12 -54 -12 -140 0 -145 2 -148 84 -148 42 0 46 -2
46 -25 0 -20 -5 -25 -25 -25 -16 0 -25 -6 -25 -15 0 -12 15 -15 75 -15 62 0
73 2 69 15 -4 9 -19 15 -35 15 -24 0 -29 4 -29 25 0 19 5 25 21 25 12 0 19 5
17 13 -3 8 -32 13 -86 15 l-82 3 0 119 0 120 170 0 170 0 0 -40 c0 -29 4 -40
15 -40 18 0 21 60 5 91 -10 18 -23 19 -188 19 -125 0 -182 -4 -190 -12z"/>
<path d="M250 273 c1 -15 7 -39 14 -53 12 -21 12 -26 -1 -36 -14 -10 -14 -17
4 -70 l20 -59 58 0 58 0 15 40 c7 22 16 58 18 80 2 22 7 60 10 84 l6 44 -38
-7 c-22 -4 -43 -7 -49 -6 -123 13 -115 14 -115 -17z m90 -8 c0 -11 -24 -55
-30 -55 -6 0 -30 44 -30 55 0 3 14 5 30 5 17 0 30 -2 30 -5z m80 -15 c0 -23
-33 -60 -55 -60 -8 0 -15 8 -15 18 0 24 27 48 68 61 1 1 2 -8 2 -19z m-20
-104 c0 -8 -4 -26 -10 -40 -8 -21 -16 -26 -45 -26 -29 0 -37 5 -45 26 -19 48
-14 54 45 54 41 0 55 -4 55 -14z"/>
</g>
</svg>
