<?xml version="1.0" standalone="no"?>
<!DOCTYPE svg PUBLIC "-//W3C//DTD SVG 20010904//EN"
 "http://www.w3.org/TR/2001/REC-SVG-20010904/DTD/svg10.dtd">
<svg version="1.0" xmlns="http://www.w3.org/2000/svg"
 width="48.000000pt" height="48.000000pt" viewBox="0 0 48.000000 48.000000"
 preserveAspectRatio="xMidYMid meet">

<g transform="translate(0.000000,48.000000) scale(0.100000,-0.100000)"
fill="#000000" stroke="none">
<path d="M56 451 c-8 -12 21 -34 34 -26 8 5 8 11 -1 21 -13 16 -25 18 -33 5z"/>
<path d="M391 446 c-9 -10 -9 -16 -1 -21 13 -8 42 14 34 26 -8 13 -20 11 -33
-5z"/>
<path d="M180 423 c-77 -40 -102 -128 -55 -197 14 -21 30 -61 36 -89 16 -78
32 -97 79 -97 47 0 63 19 79 98 6 29 20 66 32 81 12 16 23 49 26 72 10 103
-104 180 -197 132z m110 -28 c33 -17 60 -61 60 -98 0 -13 -11 -40 -24 -60 -13
-19 -27 -49 -31 -66 -6 -29 -9 -31 -55 -31 -46 0 -49 2 -55 31 -4 17 -18 47
-31 66 -28 41 -30 72 -9 113 28 54 90 73 145 45z m-12 -302 c-2 -13 -13 -18
-38 -18 -25 0 -36 5 -38 18 -3 14 4 17 38 17 34 0 41 -3 38 -17z"/>
<path d="M0 315 c0 -10 10 -15 30 -15 20 0 30 5 30 15 0 10 -10 15 -30 15 -20
0 -30 -5 -30 -15z"/>
<path d="M420 315 c0 -10 10 -15 30 -15 20 0 30 5 30 15 0 10 -10 15 -30 15
-20 0 -30 -5 -30 -15z"/>
<path d="M61 196 c-9 -10 -9 -16 -1 -21 13 -8 42 14 34 26 -8 13 -20 11 -33
-5z"/>
<path d="M386 201 c-8 -12 21 -34 34 -26 8 5 8 11 -1 21 -13 16 -25 18 -33 5z"/>
</g>
</svg>
