<?xml version="1.0" standalone="no"?>
<!DOCTYPE svg PUBLIC "-//W3C//DTD SVG 20010904//EN"
 "http://www.w3.org/TR/2001/REC-SVG-20010904/DTD/svg10.dtd">
<svg version="1.0" xmlns="http://www.w3.org/2000/svg"
 width="24.000000pt" height="24.000000pt" viewBox="0 0 24.000000 24.000000"
 preserveAspectRatio="xMidYMid meet">

<g transform="translate(0.000000,24.000000) scale(0.100000,-0.100000)"
fill="#000000" stroke="none">
<path d="M90 206 c0 -7 7 -19 15 -26 12 -10 18 -10 30 0 25 21 18 40 -15 40
-19 0 -30 -5 -30 -14z"/>
<path d="M43 192 c-16 -10 -30 -162 -14 -162 6 0 11 5 11 10 0 15 157 13 163
-2 12 -34 19 9 12 76 -5 54 -11 76 -22 80 -9 4 -19 3 -22 0 -3 -4 0 -9 7 -11
6 -3 11 -17 11 -31 -1 -17 -3 -21 -6 -9 -6 21 -53 24 -53 2 0 -8 -4 -15 -10
-15 -5 0 -10 7 -10 15 0 22 -47 19 -53 -2 -3 -11 -5 -7 -6 10 0 15 4 27 9 27
6 0 10 5 10 10 0 12 -10 13 -27 2z m157 -102 c0 -18 -7 -20 -80 -20 -73 0 -80
2 -80 20 0 18 7 20 80 20 73 0 80 -2 80 -20z"/>
</g>
</svg>
