<?xml version="1.0" standalone="no"?>
<!DOCTYPE svg PUBLIC "-//W3C//DTD SVG 20010904//EN"
 "http://www.w3.org/TR/2001/REC-SVG-20010904/DTD/svg10.dtd">
<svg version="1.0" xmlns="http://www.w3.org/2000/svg"
 width="24.000000pt" height="24.000000pt" viewBox="0 0 24.000000 24.000000"
 preserveAspectRatio="xMidYMid meet">

<g transform="translate(0.000000,24.000000) scale(0.100000,-0.100000)"
fill="#000000" stroke="none">
<path d="M52 218 c-7 -7 -12 -29 -12 -50 0 -25 -5 -38 -14 -38 -17 0 -9 -47
13 -75 13 -16 28 -20 81 -20 71 0 92 14 102 68 l5 27 -83 0 -84 0 0 40 c0 33
3 40 20 40 22 0 28 -35 8 -43 -7 -3 3 -5 22 -5 19 0 29 2 23 5 -7 2 -13 12
-13 22 0 35 -43 54 -68 29z m148 -128 c0 -25 -29 -40 -80 -40 -51 0 -80 15
-80 40 0 18 7 20 80 20 73 0 80 -2 80 -20z"/>
</g>
</svg>
