<?xml version="1.0" standalone="no"?>
<!DOCTYPE svg PUBLIC "-//W3C//DTD SVG 20010904//EN"
 "http://www.w3.org/TR/2001/REC-SVG-20010904/DTD/svg10.dtd">
<svg version="1.0" xmlns="http://www.w3.org/2000/svg"
 width="50.000000pt" height="50.000000pt" viewBox="0 0 50.000000 50.000000"
 preserveAspectRatio="xMidYMid meet">
<metadata>
Created by potrace 1.16, written by Peter Selinger 2001-2019
</metadata>
<g transform="translate(0.000000,50.000000) scale(0.100000,-0.100000)"
fill="#000000" stroke="none">
<path d="M96 448 c-9 -82 -7 -133 7 -146 8 -9 14 -61 17 -155 l5 -142 45 0 45
0 5 142 c3 94 9 146 18 155 13 13 15 64 6 146 l-7 52 -67 0 -67 0 -7 -52z m54
-108 c6 0 10 32 10 70 0 40 4 70 10 70 6 0 10 -30 10 -70 0 -92 18 -90 22 3
l3 72 9 -70 c7 -58 6 -74 -8 -98 -12 -22 -16 -56 -16 -158 0 -122 -1 -129 -20
-129 -19 0 -20 7 -20 134 0 106 -3 136 -15 146 -17 14 -19 52 -7 126 l7 49 3
-72 c2 -40 7 -73 12 -73z"/>
<path d="M338 483 c-9 -10 -21 -28 -27 -40 -15 -29 -14 -125 1 -160 8 -17 13
-76 13 -153 l0 -125 40 0 40 0 3 248 2 247 -28 0 c-16 0 -36 -8 -44 -17z m50
-239 c-3 -195 -4 -209 -22 -212 -18 -4 -18 2 -12 105 6 87 4 115 -8 145 -23
55 -21 129 5 162 13 16 25 24 30 19 5 -5 8 -104 7 -219z"/>
</g>
</svg>
