<?xml version="1.0" standalone="no"?>
<!DOCTYPE svg PUBLIC "-//W3C//DTD SVG 20010904//EN"
 "http://www.w3.org/TR/2001/REC-SVG-20010904/DTD/svg10.dtd">
<svg version="1.0" xmlns="http://www.w3.org/2000/svg"
 width="50.000000pt" height="50.000000pt" viewBox="0 0 50.000000 50.000000"
 preserveAspectRatio="xMidYMid meet">
<metadata>
Created by potrace 1.16, written by Peter Selinger 2001-2019
</metadata>
<g transform="translate(0.000000,50.000000) scale(0.100000,-0.100000)"
fill="#000000" stroke="none">
<path d="M40 265 c0 -188 1 -195 20 -195 11 0 20 -7 20 -15 0 -10 10 -15 30
-15 20 0 30 5 30 15 0 11 11 15 40 15 29 0 40 -4 40 -15 0 -12 20 -15 120 -15
l120 0 0 130 0 130 -65 0 -65 0 0 80 0 80 -145 0 -145 0 0 -195z m268 128 l3
-43 -120 0 -121 0 0 45 0 46 118 -3 117 -3 3 -42z m2 -78 c0 -11 -12 -15 -45
-15 l-45 0 0 -105 0 -105 -75 0 -75 0 0 120 0 120 120 0 c100 0 120 -2 120
-15z m125 -145 l0 -105 -95 0 -95 0 -3 94 c-1 52 0 101 2 108 4 11 27 13 98
11 l93 -3 0 -105z"/>
</g>
</svg>
