<?xml version="1.0" standalone="no"?>
<!DOCTYPE svg PUBLIC "-//W3C//DTD SVG 20010904//EN"
 "http://www.w3.org/TR/2001/REC-SVG-20010904/DTD/svg10.dtd">
<svg version="1.0" xmlns="http://www.w3.org/2000/svg"
 width="50.000000pt" height="50.000000pt" viewBox="0 0 50.000000 50.000000"
 preserveAspectRatio="xMidYMid meet">
<metadata>
Created by potrace 1.16, written by Peter Selinger 2001-2019
</metadata>
<g transform="translate(0.000000,50.000000) scale(0.100000,-0.100000)"
fill="#000000" stroke="none">
<path d="M80 468 c0 -15 -12 -31 -35 -46 -29 -18 -35 -28 -35 -57 l0 -35 125
0 125 0 0 35 c0 29 -6 39 -35 57 -23 15 -35 31 -35 46 0 20 -5 22 -55 22 -50
0 -55 -2 -55 -22z"/>
<path d="M30 271 c-25 -7 -25 -8 -28 -134 l-3 -127 251 0 250 0 0 125 c0 92
-3 127 -12 130 -25 7 -434 13 -458 6z m220 -136 l0 -95 -110 0 -110 0 0 95 0
95 110 0 110 0 0 -95z m220 -40 l0 -55 -95 0 -95 0 0 55 0 55 95 0 95 0 0 -55z"/>
<path d="M40 135 l0 -85 95 0 95 0 0 85 0 85 -95 0 -95 0 0 -85z"/>
</g>
</svg>
