<?xml version="1.0" standalone="no"?>
<!DOCTYPE svg PUBLIC "-//W3C//DTD SVG 20010904//EN"
 "http://www.w3.org/TR/2001/REC-SVG-20010904/DTD/svg10.dtd">
<svg version="1.0" xmlns="http://www.w3.org/2000/svg"
 width="48.000000pt" height="48.000000pt" viewBox="0 0 48.000000 48.000000"
 preserveAspectRatio="xMidYMid meet">
<metadata>
Created by potrace 1.16, written by Peter Selinger 2001-2019
</metadata>
<g transform="translate(0.000000,48.000000) scale(0.100000,-0.100000)"
fill="#000000" stroke="none">
<path d="M127 443 c-11 -10 -8 -101 3 -108 14 -9 13 -55 -1 -55 -8 0 -10 -15
-7 -44 5 -38 2 -48 -19 -68 -21 -19 -23 -30 -21 -83 3 -60 3 -60 36 -63 37 -4
46 22 11 31 -19 5 -21 11 -15 39 11 55 26 63 126 63 102 0 121 -10 123 -66 l2
-34 -92 -3 c-75 -2 -93 -6 -93 -18 0 -12 17 -14 108 -12 l107 3 3 60 c2 53 0
64 -21 83 -21 20 -24 30 -19 68 3 29 1 44 -7 44 -14 0 -15 42 0 57 5 5 9 32 7
59 -3 47 -4 49 -35 52 -38 4 -47 -22 -12 -31 15 -4 20 -12 17 -29 -3 -21 -9
-23 -60 -26 -43 -2 -58 -7 -58 -17 0 -11 13 -15 50 -15 47 0 50 -2 50 -25 0
-20 -5 -25 -25 -25 -16 0 -25 -6 -25 -15 0 -10 10 -15 30 -15 33 0 40 -19 15
-40 -22 -18 -87 -22 -115 -8 -23 13 -25 18 -21 77 2 38 -2 72 -9 86 -20 38 -7
55 45 55 33 0 45 4 45 15 0 12 -13 15 -58 15 -32 0 -62 -3 -65 -7z"/>
</g>
</svg>
