<?xml version="1.0" standalone="no"?>
<!DOCTYPE svg PUBLIC "-//W3C//DTD SVG 20010904//EN"
 "http://www.w3.org/TR/2001/REC-SVG-20010904/DTD/svg10.dtd">
<svg version="1.0" xmlns="http://www.w3.org/2000/svg"
 width="32.000000pt" height="32.000000pt" viewBox="0 0 32.000000 32.000000"
 preserveAspectRatio="xMidYMid meet">
<metadata>
Created by potrace 1.16, written by Peter Selinger 2001-2019
</metadata>
<g transform="translate(0.000000,32.000000) scale(0.100000,-0.100000)"
fill="#000000" stroke="none">
<path d="M74 246 c-50 -50 -50 -122 0 -172 24 -24 43 -34 65 -34 36 0 37 2 15
35 -16 24 -15 25 6 25 21 0 22 -3 16 -50 -6 -41 -4 -50 9 -50 8 0 15 7 15 15
0 9 16 25 35 36 19 12 35 27 35 35 0 8 4 14 10 14 19 0 -13 -49 -36 -54 -34
-9 -30 -26 5 -26 51 0 98 88 55 104 -23 9 -87 7 -102 -3 -19 -12 -62 -1 -62
15 0 8 9 14 20 14 11 0 20 -4 20 -10 0 -5 7 -10 15 -10 8 0 15 5 15 11 0 7 12
9 35 5 35 -7 35 -7 35 30 0 28 -8 44 -34 70 -30 30 -40 34 -86 34 -46 0 -56
-4 -86 -34z"/>
</g>
</svg>
