<?xml version="1.0" standalone="no"?>
<!DOCTYPE svg PUBLIC "-//W3C//DTD SVG 20010904//EN"
 "http://www.w3.org/TR/2001/REC-SVG-20010904/DTD/svg10.dtd">
<svg version="1.0" xmlns="http://www.w3.org/2000/svg"
 width="48.000000pt" height="48.000000pt" viewBox="0 0 48.000000 48.000000"
 preserveAspectRatio="xMidYMid meet">
<metadata>
Created by potrace 1.16, written by Peter Selinger 2001-2019
</metadata>
<g transform="translate(0.000000,48.000000) scale(0.100000,-0.100000)"
fill="#000000" stroke="none">
<path d="M135 370 l-76 -61 3 -127 3 -127 175 0 175 0 3 127 3 127 -76 61
c-53 42 -85 60 -105 60 -20 0 -52 -18 -105 -60z m180 -32 c73 -58 78 -71 73
-183 l-3 -70 -145 0 -145 0 -3 81 c-1 44 1 90 5 102 9 24 121 121 141 121 7 1
42 -22 77 -51z"/>
<path d="M280 258 c0 -18 7 -43 15 -54 16 -24 11 -34 -17 -34 -15 0 -18 8 -18
55 0 48 -2 55 -20 55 -18 0 -20 -7 -20 -55 0 -42 -3 -55 -15 -55 -21 0 -19
-23 3 -43 25 -23 47 -21 69 6 14 17 26 21 56 19 36 -3 37 -3 37 32 0 29 -4 36
-20 36 -14 0 -22 10 -28 32 -12 46 -42 50 -42 6z"/>
</g>
</svg>
