<?xml version="1.0" standalone="no"?>
<!DOCTYPE svg PUBLIC "-//W3C//DTD SVG 20010904//EN"
 "http://www.w3.org/TR/2001/REC-SVG-20010904/DTD/svg10.dtd">
<svg version="1.0" xmlns="http://www.w3.org/2000/svg"
 width="24.000000pt" height="24.000000pt" viewBox="0 0 24.000000 24.000000"
 preserveAspectRatio="xMidYMid meet">
<metadata>
Created by potrace 1.16, written by Peter Selinger 2001-2019
</metadata>
<g transform="translate(0.000000,24.000000) scale(0.100000,-0.100000)"
fill="#000000" stroke="none">
<path d="M73 199 l-43 -30 0 -70 0 -69 90 0 90 0 0 70 0 69 -44 31 c-25 16
-46 30 -48 30 -2 -1 -22 -14 -45 -31z m82 -31 c32 -21 35 -27 35 -70 l0 -48
-70 0 -70 0 0 48 c0 42 4 49 33 69 17 12 33 22 35 22 1 1 18 -9 37 -21z"/>
</g>
</svg>
